<svg width="48" height="48" viewBox="0 0 48 48" fill="none" xmlns="http://www.w3.org/2000/svg">
<circle cx="24" cy="24" r="24" fill="#12679B"/>
<path d="M28.7227 23.8164C28.7227 24.6367 28.6608 25.4505 28.5371 26.2578C28.4199 27.0651 28.2116 27.8268 27.9121 28.543C27.6126 29.2526 27.1927 29.8841 26.6523 30.4375C26.112 30.9844 25.4251 31.4141 24.5918 31.7266C23.7585 32.0391 22.7493 32.1953 21.5645 32.1953C21.2845 32.1953 20.9557 32.1823 20.5781 32.1562C20.2005 32.1367 19.888 32.1042 19.6406 32.0586V29.6367C19.901 29.7018 20.1777 29.7539 20.4707 29.793C20.7637 29.8255 21.0599 29.8418 21.3594 29.8418C22.5508 29.8418 23.4688 29.653 24.1133 29.2754C24.7643 28.8978 25.2201 28.3737 25.4805 27.7031C25.7474 27.0326 25.9004 26.2578 25.9395 25.3789H25.8223C25.6335 25.6914 25.4089 25.9746 25.1484 26.2285C24.8945 26.4759 24.569 26.6745 24.1719 26.8242C23.7747 26.9674 23.2702 27.0391 22.6582 27.0391C21.8444 27.0391 21.1348 26.8633 20.5293 26.5117C19.9303 26.1536 19.4648 25.6393 19.1328 24.9688C18.8073 24.2917 18.6445 23.4746 18.6445 22.5176C18.6445 21.4824 18.8398 20.597 19.2305 19.8613C19.6276 19.1191 20.1908 18.5495 20.9199 18.1523C21.6491 17.7552 22.5085 17.5566 23.498 17.5566C24.2272 17.5566 24.9076 17.6836 25.5391 17.9375C26.1706 18.1849 26.724 18.5658 27.1992 19.0801C27.681 19.5944 28.0553 20.2454 28.3223 21.0332C28.5892 21.821 28.7227 22.7487 28.7227 23.8164ZM23.5566 19.9785C22.9707 19.9785 22.4922 20.1803 22.1211 20.584C21.75 20.9876 21.5645 21.6191 21.5645 22.4785C21.5645 23.1686 21.724 23.7155 22.043 24.1191C22.362 24.5228 22.847 24.7246 23.498 24.7246C23.9473 24.7246 24.3379 24.627 24.6699 24.4316C25.002 24.2298 25.2591 23.9792 25.4414 23.6797C25.6302 23.3737 25.7246 23.0612 25.7246 22.7422C25.7246 22.4102 25.679 22.0814 25.5879 21.7559C25.4967 21.4303 25.36 21.1341 25.1777 20.8672C24.9954 20.6003 24.7676 20.3854 24.4941 20.2227C24.2272 20.0599 23.9147 19.9785 23.5566 19.9785Z" fill="white"/>
</svg>
