<svg width="48" height="48" viewBox="0 0 48 48" fill="none" xmlns="http://www.w3.org/2000/svg">
<circle cx="24" cy="24" r="24" fill="#12679B"/>
<path d="M28.7812 32H18.8008V29.9004L22.3848 26.2773C23.1074 25.5352 23.6868 24.9167 24.123 24.4219C24.5658 23.9206 24.8848 23.4648 25.0801 23.0547C25.2819 22.6445 25.3828 22.2051 25.3828 21.7363C25.3828 21.1699 25.2233 20.7467 24.9043 20.4668C24.5918 20.1803 24.1719 20.0371 23.6445 20.0371C23.0911 20.0371 22.554 20.1641 22.0332 20.418C21.5124 20.6719 20.9688 21.0332 20.4023 21.502L18.7617 19.5586C19.1719 19.207 19.6048 18.875 20.0605 18.5625C20.5228 18.25 21.0566 17.9993 21.6621 17.8105C22.2741 17.6152 23.0065 17.5176 23.8594 17.5176C24.7969 17.5176 25.6009 17.6868 26.2715 18.0254C26.9486 18.3639 27.4694 18.8262 27.834 19.4121C28.1986 19.9915 28.3809 20.6491 28.3809 21.3848C28.3809 22.1725 28.2246 22.8919 27.9121 23.543C27.5996 24.194 27.1439 24.8385 26.5449 25.4766C25.9525 26.1146 25.2363 26.821 24.3965 27.5957L22.5605 29.3242V29.4609H28.7812V32Z" fill="white"/>
</svg>
