<svg width="48" height="48" viewBox="0 0 48 48" fill="none" xmlns="http://www.w3.org/2000/svg">
<circle cx="24" cy="24" r="24" fill="#12679B"/>
<path d="M28.2246 20.916C28.2246 21.5736 28.0879 22.1432 27.8145 22.625C27.541 23.1068 27.1699 23.5007 26.7012 23.8066C26.2389 24.1126 25.7181 24.3372 25.1387 24.4805V24.5391C26.2845 24.6823 27.1536 25.0339 27.7461 25.5938C28.3451 26.1536 28.6445 26.9023 28.6445 27.8398C28.6445 28.6732 28.4395 29.4186 28.0293 30.0762C27.6257 30.7337 27.0007 31.2513 26.1543 31.6289C25.3079 32.0065 24.2174 32.1953 22.8828 32.1953C22.0951 32.1953 21.3594 32.1302 20.6758 32C19.9987 31.8763 19.3607 31.6842 18.7617 31.4238V28.8555C19.3737 29.168 20.015 29.4056 20.6855 29.5684C21.3561 29.7246 21.9811 29.8027 22.5605 29.8027C23.6413 29.8027 24.3965 29.6172 24.8262 29.2461C25.2624 28.8685 25.4805 28.3411 25.4805 27.6641C25.4805 27.2669 25.3796 26.9316 25.1777 26.6582C24.9759 26.3848 24.6243 26.1764 24.123 26.0332C23.6283 25.89 22.9349 25.8184 22.043 25.8184H20.959V23.5039H22.0625C22.9414 23.5039 23.6087 23.4225 24.0645 23.2598C24.5267 23.0905 24.8392 22.8626 25.002 22.5762C25.1712 22.2832 25.2559 21.9512 25.2559 21.5801C25.2559 21.0723 25.0996 20.6751 24.7871 20.3887C24.4746 20.1022 23.9538 19.959 23.2246 19.959C22.7689 19.959 22.3522 20.0176 21.9746 20.1348C21.6035 20.2454 21.2682 20.3822 20.9688 20.5449C20.6693 20.7012 20.4056 20.8542 20.1777 21.0039L18.7812 18.9238C19.3411 18.5202 19.9954 18.1849 20.7441 17.918C21.4993 17.651 22.3978 17.5176 23.4395 17.5176C24.9108 17.5176 26.0762 17.8138 26.9355 18.4062C27.7949 18.9987 28.2246 19.8353 28.2246 20.916Z" fill="white"/>
</svg>
