<svg width="48" height="48" viewBox="0 0 48 48" fill="none" xmlns="http://www.w3.org/2000/svg">
<circle cx="24" cy="24" r="24" fill="#12679B"/>
<path d="M21.2617 32H18.2441V23.7383C18.2441 23.5104 18.2474 23.2305 18.2539 22.8984C18.2604 22.5599 18.2702 22.2148 18.2832 21.8633C18.2962 21.5052 18.3092 21.1829 18.3223 20.8965C18.2507 20.9811 18.1042 21.1276 17.8828 21.3359C17.668 21.5378 17.4661 21.7201 17.2773 21.8828L15.6367 23.2012L14.1816 21.3848L18.7812 17.7227H21.2617V32ZM35.1484 24.8613C35.1484 26.0137 35.0573 27.0423 34.875 27.9473C34.6992 28.8522 34.4128 29.6204 34.0156 30.252C33.625 30.8835 33.1107 31.3652 32.4727 31.6973C31.8346 32.0293 31.0599 32.1953 30.1484 32.1953C29.0026 32.1953 28.0618 31.9056 27.3262 31.3262C26.5905 30.7402 26.0469 29.9004 25.6953 28.8066C25.3438 27.7064 25.168 26.3913 25.168 24.8613C25.168 23.3184 25.3275 22 25.6465 20.9062C25.972 19.806 26.4993 18.9629 27.2285 18.377C27.9577 17.791 28.931 17.498 30.1484 17.498C31.2878 17.498 32.2253 17.791 32.9609 18.377C33.7031 18.9564 34.2533 19.7962 34.6113 20.8965C34.9694 21.9902 35.1484 23.3118 35.1484 24.8613ZM28.166 24.8613C28.166 25.9486 28.2246 26.8568 28.3418 27.5859C28.4655 28.3086 28.6706 28.8522 28.957 29.2168C29.2435 29.5814 29.6406 29.7637 30.1484 29.7637C30.6497 29.7637 31.0436 29.5846 31.3301 29.2266C31.623 28.862 31.8314 28.3184 31.9551 27.5957C32.0788 26.8665 32.1406 25.9551 32.1406 24.8613C32.1406 23.7741 32.0788 22.8659 31.9551 22.1367C31.8314 21.4076 31.623 20.8607 31.3301 20.4961C31.0436 20.125 30.6497 19.9395 30.1484 19.9395C29.6406 19.9395 29.2435 20.125 28.957 20.4961C28.6706 20.8607 28.4655 21.4076 28.3418 22.1367C28.2246 22.8659 28.166 23.7741 28.166 24.8613Z" fill="white"/>
</svg>
