<svg width="48" height="48" viewBox="0 0 48 48" fill="none" xmlns="http://www.w3.org/2000/svg">
<circle cx="24" cy="24" r="24" fill="#12679B"/>
<path d="M23.7227 17.5371C24.543 17.5371 25.2982 17.6641 25.9883 17.918C26.6849 18.1719 27.2415 18.556 27.6582 19.0703C28.0749 19.5781 28.2832 20.2161 28.2832 20.9844C28.2832 21.5573 28.1693 22.0586 27.9414 22.4883C27.7201 22.918 27.4173 23.2956 27.0332 23.6211C26.6491 23.9401 26.2129 24.2201 25.7246 24.4609C26.2324 24.7279 26.7142 25.0404 27.1699 25.3984C27.6257 25.75 27.9967 26.1634 28.2832 26.6387C28.5762 27.1139 28.7227 27.6673 28.7227 28.2988C28.7227 29.0931 28.5111 29.7832 28.0879 30.3691C27.6647 30.9486 27.0788 31.3978 26.3301 31.7168C25.5814 32.0358 24.7122 32.1953 23.7227 32.1953C22.6549 32.1953 21.7467 32.0423 20.998 31.7363C20.2493 31.4303 19.6797 30.9941 19.2891 30.4277C18.8984 29.8548 18.7031 29.1712 18.7031 28.377C18.7031 27.7259 18.8236 27.1595 19.0645 26.6777C19.3118 26.196 19.6439 25.7826 20.0605 25.4375C20.4772 25.0859 20.9362 24.7865 21.4375 24.5391C21.0143 24.2721 20.627 23.9694 20.2754 23.6309C19.9303 23.2923 19.6536 22.9049 19.4453 22.4688C19.2435 22.0326 19.1426 21.5312 19.1426 20.9648C19.1426 20.2096 19.3542 19.5781 19.7773 19.0703C20.207 18.5625 20.7702 18.1816 21.4668 17.9277C22.1634 17.6673 22.9154 17.5371 23.7227 17.5371ZM21.4961 28.2012C21.4961 28.7155 21.6784 29.1419 22.043 29.4805C22.4141 29.8125 22.9609 29.9785 23.6836 29.9785C24.4323 29.9785 24.9922 29.819 25.3633 29.5C25.7344 29.1745 25.9199 28.748 25.9199 28.2207C25.9199 27.8561 25.8125 27.5371 25.5977 27.2637C25.3893 26.9902 25.1257 26.7461 24.8066 26.5312C24.4876 26.3099 24.1654 26.1048 23.8398 25.916L23.5762 25.7793C23.1595 25.9681 22.7949 26.1797 22.4824 26.4141C22.1764 26.6484 21.9355 26.9121 21.7598 27.2051C21.584 27.498 21.4961 27.8301 21.4961 28.2012ZM23.7031 19.7441C23.2083 19.7441 22.7982 19.8711 22.4727 20.125C22.1471 20.3789 21.9844 20.737 21.9844 21.1992C21.9844 21.5247 22.0625 21.8112 22.2188 22.0586C22.3815 22.2995 22.5931 22.5111 22.8535 22.6934C23.1204 22.8757 23.4102 23.0449 23.7227 23.2012C24.0221 23.0579 24.3021 22.8984 24.5625 22.7227C24.8229 22.5469 25.0345 22.3353 25.1973 22.0879C25.36 21.8405 25.4414 21.5443 25.4414 21.1992C25.4414 20.737 25.2754 20.3789 24.9434 20.125C24.6178 19.8711 24.2044 19.7441 23.7031 19.7441Z" fill="white"/>
</svg>
