<svg width="48" height="48" viewBox="0 0 48 48" fill="none" xmlns="http://www.w3.org/2000/svg">
<circle cx="24" cy="24" r="24" fill="#12679B"/>
<path d="M23.9961 22.8789C24.8685 22.8789 25.6432 23.0449 26.3203 23.377C27.0039 23.709 27.541 24.1973 27.9316 24.8418C28.3223 25.4863 28.5176 26.2806 28.5176 27.2246C28.5176 28.2533 28.3027 29.1419 27.873 29.8906C27.4499 30.6328 26.8151 31.2025 25.9688 31.5996C25.1289 31.9967 24.0807 32.1953 22.8242 32.1953C22.0755 32.1953 21.3691 32.1302 20.7051 32C20.0475 31.8763 19.4714 31.6842 18.9766 31.4238V28.8164C19.4714 29.0768 20.0638 29.2982 20.7539 29.4805C21.4505 29.6562 22.1048 29.7441 22.7168 29.7441C23.3158 29.7441 23.8203 29.666 24.2305 29.5098C24.6406 29.347 24.9499 29.0996 25.1582 28.7676C25.373 28.429 25.4805 27.9993 25.4805 27.4785C25.4805 26.7819 25.2461 26.248 24.7773 25.877C24.3086 25.5059 23.5892 25.3203 22.6191 25.3203C22.248 25.3203 21.8607 25.3561 21.457 25.4277C21.0599 25.4993 20.7279 25.571 20.4609 25.6426L19.2598 24.998L19.7969 17.7227H27.541V20.2812H22.4434L22.1797 23.084C22.401 23.0384 22.6419 22.9928 22.9023 22.9473C23.1628 22.9017 23.5273 22.8789 23.9961 22.8789Z" fill="white"/>
</svg>
