<svg width="48" height="48" viewBox="0 0 48 48" fill="none" xmlns="http://www.w3.org/2000/svg">
<circle cx="24" cy="24" r="24" fill="#12679B"/>
<path d="M29.1035 29.041H27.3848V32H24.4355V29.041H18.3418V26.9414L24.6016 17.7227H27.3848V26.6973H29.1035V29.041ZM24.4355 26.6973V24.2754C24.4355 24.0475 24.4388 23.7773 24.4453 23.4648C24.4583 23.1523 24.4714 22.8398 24.4844 22.5273C24.4974 22.2148 24.5104 21.9382 24.5234 21.6973C24.543 21.4499 24.556 21.2773 24.5625 21.1797H24.4844C24.3607 21.4466 24.2305 21.707 24.0938 21.9609C23.957 22.2083 23.7975 22.4688 23.6152 22.7422L20.998 26.6973H24.4355Z" fill="white"/>
</svg>
