<svg width="48" height="48" viewBox="0 0 48 48" fill="none" xmlns="http://www.w3.org/2000/svg">
<circle cx="24" cy="24" r="24" fill="#12679B"/>
<path d="M21.2617 32H18.2441V23.7383C18.2441 23.5104 18.2474 23.2305 18.2539 22.8984C18.2604 22.5599 18.2702 22.2148 18.2832 21.8633C18.2962 21.5052 18.3092 21.1829 18.3223 20.8965C18.2507 20.9811 18.1042 21.1276 17.8828 21.3359C17.668 21.5378 17.4661 21.7201 17.2773 21.8828L15.6367 23.2012L14.1816 21.3848L18.7812 17.7227H21.2617V32ZM32.707 32H29.6895V23.7383C29.6895 23.5104 29.6927 23.2305 29.6992 22.8984C29.7057 22.5599 29.7155 22.2148 29.7285 21.8633C29.7415 21.5052 29.7546 21.1829 29.7676 20.8965C29.696 20.9811 29.5495 21.1276 29.3281 21.3359C29.1133 21.5378 28.9115 21.7201 28.7227 21.8828L27.082 23.2012L25.627 21.3848L30.2266 17.7227H32.707V32Z" fill="white"/>
</svg>
