<svg width="48" height="48" viewBox="0 0 48 48" fill="none" xmlns="http://www.w3.org/2000/svg">
<circle cx="24" cy="24" r="24" fill="#12679B"/>
<path d="M18.7031 25.9355C18.7031 25.1152 18.7617 24.3047 18.8789 23.5039C19.0026 22.6966 19.2142 21.9382 19.5137 21.2285C19.8132 20.5124 20.2331 19.8809 20.7734 19.334C21.3138 18.7806 22.0007 18.3477 22.834 18.0352C23.6673 17.7161 24.6764 17.5566 25.8613 17.5566C26.1413 17.5566 26.4668 17.5697 26.8379 17.5957C27.2155 17.6152 27.528 17.651 27.7754 17.7031V20.1152C27.515 20.0566 27.235 20.0111 26.9355 19.9785C26.6426 19.9395 26.3496 19.9199 26.0566 19.9199C24.8717 19.9199 23.9538 20.1087 23.3027 20.4863C22.6582 20.8639 22.2025 21.388 21.9355 22.0586C21.6751 22.7227 21.5221 23.4974 21.4766 24.3828H21.6035C21.7858 24.0638 22.0137 23.7806 22.2871 23.5332C22.5671 23.2858 22.9056 23.0905 23.3027 22.9473C23.6999 22.7975 24.1654 22.7227 24.6992 22.7227C25.5326 22.7227 26.2552 22.9017 26.8672 23.2598C27.4792 23.6113 27.9512 24.1224 28.2832 24.793C28.6152 25.4635 28.7812 26.2806 28.7812 27.2441C28.7812 28.2728 28.5827 29.1582 28.1855 29.9004C27.7884 30.6426 27.2253 31.2122 26.4961 31.6094C25.7734 32 24.9141 32.1953 23.918 32.1953C23.1888 32.1953 22.5085 32.0716 21.877 31.8242C21.2454 31.5703 20.6921 31.1862 20.2168 30.6719C19.7415 30.1576 19.3704 29.5098 19.1035 28.7285C18.8366 27.9408 18.7031 27.0098 18.7031 25.9355ZM23.8594 29.7832C24.4518 29.7832 24.9336 29.5814 25.3047 29.1777C25.6758 28.7741 25.8613 28.1426 25.8613 27.2832C25.8613 26.5866 25.6986 26.0397 25.373 25.6426C25.054 25.2389 24.569 25.0371 23.918 25.0371C23.4753 25.0371 23.0846 25.138 22.7461 25.3398C22.4141 25.5352 22.1569 25.7858 21.9746 26.0918C21.7923 26.3913 21.7012 26.7005 21.7012 27.0195C21.7012 27.3516 21.7467 27.6803 21.8379 28.0059C21.929 28.3314 22.0658 28.6276 22.248 28.8945C22.4303 29.1615 22.6549 29.3763 22.9219 29.5391C23.1953 29.7018 23.5078 29.7832 23.8594 29.7832Z" fill="white"/>
</svg>
