<svg width="80" height="80" viewBox="0 0 80 80" fill="none" xmlns="http://www.w3.org/2000/svg">
<path d="M0 40C0 17.9086 17.9086 0 40 0C62.0914 0 80 17.9086 80 40C80 62.0914 62.0914 80 40 80C17.9086 80 0 62.0914 0 40Z" fill="white"/>
<g clip-path="url(#clip0_578_7466)">
<path d="M59.6543 48.3466C59.336 48.3462 59.0309 48.2195 58.8059 47.9945C58.5809 47.7695 58.4542 47.4644 58.4538 47.1461V41.7868C58.4542 41.4685 58.5809 41.1634 58.8059 40.9384C59.0309 40.7133 59.336 40.5867 59.6543 40.5863H63.0825C63.193 40.5863 63.3013 40.5551 63.3948 40.4963C63.4883 40.4375 63.5633 40.3534 63.6112 40.2538C63.659 40.1542 63.6777 40.0431 63.6651 39.9333C63.6526 39.8236 63.6092 39.7196 63.5402 39.6334L58.7163 33.6038C58.5468 33.3905 58.4543 33.1263 58.4538 32.8539V16.774C58.4538 16.6184 58.392 16.4692 58.2821 16.3592C58.1722 16.2491 58.0231 16.1871 57.8675 16.1869L54.2625 16.2149C54.1074 16.2163 53.9592 16.279 53.8501 16.3893C53.7411 16.4996 53.6802 16.6486 53.6807 16.8038L53.7087 25.3578C53.7082 25.6036 53.6323 25.8434 53.4912 26.0447C53.3501 26.246 53.1506 26.3991 52.9197 26.4834C52.6887 26.5676 52.4375 26.579 52.1999 26.5158C51.9623 26.4527 51.7498 26.3182 51.5912 26.1304L42.5122 15.3968C42.4945 15.3754 42.4752 15.3555 42.4544 15.3373C41.7773 14.7351 40.9027 14.4024 39.9965 14.4024C39.0904 14.4024 38.2158 14.7351 37.5387 15.3373C37.5193 15.3543 37.5011 15.3727 37.4844 15.3924L34.0894 19.3386C33.976 19.4697 33.8357 19.5748 33.6781 19.6468C33.5205 19.7188 33.3492 19.7561 33.1759 19.756C32.8905 19.7561 32.6146 19.6533 32.3989 19.4664C32.1581 19.2587 32.0095 18.9641 31.9856 18.6471C31.9616 18.3301 32.0643 18.0165 32.2712 17.775L35.7335 13.75C35.761 13.7192 35.7903 13.69 35.821 13.6625C36.9521 12.5966 38.4476 12.0031 40.0018 12.0031C41.5559 12.0031 43.0514 12.5966 44.1825 13.6625C44.2141 13.692 44.2434 13.7239 44.27 13.7579L50.2725 20.855C50.3501 20.9469 50.454 21.0127 50.5702 21.0435C50.6864 21.0743 50.8093 21.0687 50.9222 21.0273C51.0351 20.986 51.1325 20.9109 51.2013 20.8123C51.2701 20.7137 51.3069 20.5964 51.3068 20.4761V16.774C51.3077 15.9901 51.6193 15.2384 52.1733 14.6838C52.7273 14.1291 53.4786 13.8166 54.2625 13.8148H57.892C58.6766 13.8157 59.4287 14.1278 59.9835 14.6825C60.5383 15.2373 60.8504 15.9894 60.8513 16.774V32.2274C60.851 32.3604 60.8964 32.4895 60.9799 32.5931L67.7375 41.036C67.8787 41.2127 67.9671 41.4257 67.9926 41.6504C68.0181 41.8752 67.9797 42.1025 67.8817 42.3064C67.7837 42.5102 67.6301 42.6823 67.4387 42.8027C67.2473 42.9232 67.0257 42.9871 66.7995 42.9873H61.4375C61.282 42.9873 61.1329 43.049 61.023 43.159C60.913 43.2689 60.8513 43.418 60.8513 43.5735V47.1461C60.8508 47.4638 60.7247 47.7683 60.5004 47.9933C60.2761 48.2182 59.9719 48.3452 59.6543 48.3466ZM22.1334 68C21.3415 67.9991 20.5823 67.684 20.0224 67.124C19.4626 66.5639 19.1477 65.8047 19.147 65.0128V43.5753C19.147 43.4198 19.0853 43.2707 18.9753 43.1607C18.8654 43.0508 18.7163 42.989 18.5608 42.989H13.2005C12.9703 42.9893 12.7449 42.9234 12.5511 42.7991C12.3572 42.6748 12.2033 42.4975 12.1074 42.2881C12.0116 42.0788 11.978 41.8463 12.0106 41.6184C12.0433 41.3905 12.1407 41.1768 12.2914 41.0028L18.4383 33.8566C18.6459 33.6157 18.9407 33.4671 19.2579 33.4435C19.575 33.4198 19.8886 33.5231 20.1297 33.7306C20.2491 33.8334 20.3472 33.9587 20.4182 34.0994C20.4893 34.24 20.5319 34.3933 20.5437 34.5505C20.5555 34.7076 20.5362 34.8656 20.4869 35.0152C20.4376 35.1649 20.3594 35.3035 20.2565 35.4229L16.648 39.6176C16.5752 39.7028 16.5283 39.8071 16.5128 39.9181C16.4973 40.029 16.514 40.1422 16.5607 40.244C16.6074 40.3459 16.6824 40.4322 16.7766 40.4929C16.8708 40.5535 16.9805 40.5859 17.0925 40.5863H20.3475C20.6657 40.5867 20.9707 40.7134 21.1956 40.9384C21.4205 41.1635 21.5469 41.4686 21.5472 41.7868V65.0128C21.547 65.0898 21.5621 65.1661 21.5915 65.2374C21.6209 65.3086 21.6641 65.3733 21.7186 65.4279C21.773 65.4824 21.8377 65.5257 21.9089 65.5552C21.98 65.5847 22.0563 65.5999 22.1334 65.5999H45.3603C45.5206 65.5956 45.6802 65.6234 45.8296 65.6818C45.9789 65.7401 46.1151 65.8278 46.23 65.9397C46.345 66.0515 46.4363 66.1853 46.4987 66.3331C46.5611 66.4808 46.5932 66.6396 46.5932 66.7999C46.5932 66.9603 46.5611 67.1191 46.4987 67.2668C46.4363 67.4146 46.345 67.5483 46.23 67.6602C46.1151 67.7721 45.9789 67.8598 45.8296 67.9181C45.6802 67.9765 45.5206 68.0043 45.3603 68H22.1334ZM56.0808 68C55.9205 68.0043 55.7609 67.9765 55.6115 67.9181C55.4621 67.8598 55.326 67.7721 55.211 67.6602C55.0961 67.5483 55.0048 67.4146 54.9424 67.2668C54.88 67.1191 54.8479 66.9603 54.8479 66.7999C54.8479 66.6396 54.88 66.4808 54.9424 66.3331C55.0048 66.1853 55.0961 66.0515 55.211 65.9397C55.326 65.8278 55.4621 65.7401 55.6115 65.6818C55.7609 65.6234 55.9205 65.5956 56.0808 65.5999H57.8675C57.9446 65.5999 58.0209 65.5847 58.0921 65.5552C58.1633 65.5257 58.2279 65.4824 58.2824 65.4279C58.3368 65.3733 58.38 65.3086 58.4094 65.2374C58.4388 65.1661 58.4539 65.0898 58.4538 65.0128V61.4375C58.4538 61.1191 58.5803 60.8138 58.8054 60.5886C59.0305 60.3635 59.3359 60.237 59.6543 60.237C59.9727 60.237 60.278 60.3635 60.5032 60.5886C60.7283 60.8138 60.8548 61.1191 60.8548 61.4375V65.0101C60.8545 65.8026 60.5398 66.5625 59.9797 67.1231C59.4196 67.6837 58.66 67.9991 57.8675 68H56.0808Z" fill="#0E2D43"/>
<path d="M50.7207 68.0001C50.4025 67.9996 50.0974 67.873 49.8724 67.6479C49.6473 67.4229 49.5207 67.1178 49.5202 66.7996C49.5202 59.6149 45.3999 55.4937 38.2144 55.4937C37.896 55.4937 37.5906 55.3672 37.3655 55.1421C37.1404 54.9169 37.0139 54.6116 37.0139 54.2932C37.0139 53.9748 37.1404 53.6694 37.3655 53.4443C37.5906 53.2192 37.896 53.0927 38.2144 53.0927C45.3999 53.0927 49.5202 48.9723 49.5202 41.7868C49.5202 41.4684 49.6467 41.1631 49.8719 40.9379C50.097 40.7128 50.4024 40.5863 50.7207 40.5863C51.0391 40.5863 51.3445 40.7128 51.5696 40.9379C51.7948 41.1631 51.9212 41.4684 51.9212 41.7868C51.9212 48.9723 56.0425 53.0927 63.228 53.0927C63.5464 53.0927 63.8517 53.2192 64.0769 53.4443C64.302 53.6694 64.4285 53.9748 64.4285 54.2932C64.4285 54.6116 64.302 54.9169 64.0769 55.1421C63.8517 55.3672 63.5464 55.4937 63.228 55.4937C56.0425 55.4937 51.9212 59.6149 51.9212 66.7996C51.9208 67.1178 51.7942 67.4229 51.5691 67.6479C51.3441 67.873 51.039 67.9996 50.7207 68.0001ZM50.7207 48.8979C50.6154 48.8979 50.5119 48.9264 50.4214 48.9803C50.3308 49.0342 50.2565 49.1116 50.2062 49.2042C49.1598 51.1423 47.5698 52.7323 45.6317 53.7787C45.5391 53.8289 45.4618 53.9033 45.4079 53.9938C45.354 54.0844 45.3256 54.1878 45.3256 54.2932C45.3256 54.3986 45.354 54.502 45.4079 54.5925C45.4618 54.6831 45.5391 54.7574 45.6317 54.8077C47.5697 55.8547 49.1596 57.4449 50.2062 59.3831C50.2568 59.4754 50.3313 59.5525 50.4219 59.6061C50.5125 59.6598 50.6159 59.6881 50.7212 59.6881C50.8265 59.6881 50.9298 59.6598 51.0204 59.6061C51.111 59.5525 51.1855 59.4754 51.2361 59.3831C52.2818 57.4442 53.872 55.8538 55.8106 54.8077C55.903 54.7572 55.9801 54.6828 56.0338 54.5923C56.0875 54.5018 56.1158 54.3984 56.1158 54.2932C56.1158 54.1879 56.0875 54.0846 56.0338 53.9941C55.9801 53.9035 55.903 53.8291 55.8106 53.7787C53.8725 52.7323 52.2825 51.1423 51.2361 49.2042C51.1856 49.1115 51.1112 49.0342 51.0205 48.9803C50.9298 48.9264 50.8262 48.898 50.7207 48.8979ZM23.9204 35.8403C23.6024 35.8398 23.2975 35.7133 23.0726 35.4884C22.8477 35.2636 22.7212 34.9587 22.7207 34.6407C22.7637 33.3791 22.5468 32.1222 22.0836 30.948C21.6203 29.7737 20.9205 28.7073 20.0277 27.8149C19.1349 26.9226 18.0682 26.2233 16.8938 25.7605C15.7193 25.2978 14.4623 25.0815 13.2007 25.1251C12.8824 25.1251 12.577 24.9986 12.3519 24.7734C12.1267 24.5483 12.0002 24.243 12.0002 23.9246C12.0002 23.6062 12.1267 23.3008 12.3519 23.0757C12.577 22.8505 12.8824 22.7241 13.2007 22.7241C14.463 22.7677 15.7207 22.5511 16.8957 22.0879C18.0707 21.6247 19.1378 20.9247 20.0307 20.0315C20.9236 19.1383 21.6232 18.0709 22.086 16.8957C22.5488 15.7206 22.7648 14.4628 22.7207 13.2006C22.7164 13.0402 22.7443 12.8807 22.8026 12.7313C22.861 12.5819 22.9487 12.4457 23.0605 12.3308C23.1724 12.2159 23.3062 12.1245 23.4539 12.0622C23.6017 11.9998 23.7604 11.9677 23.9208 11.9677C24.0812 11.9677 24.2399 11.9998 24.3877 12.0622C24.5354 12.1245 24.6692 12.2159 24.7811 12.3308C24.8929 12.4457 24.9806 12.5819 25.039 12.7313C25.0974 12.8807 25.1252 13.0402 25.1209 13.2006C25.0774 14.4624 25.2939 15.7197 25.757 16.8944C26.22 18.069 26.9197 19.1359 27.8126 20.0286C28.7054 20.9214 29.7723 21.621 30.947 22.0839C32.1217 22.5469 33.379 22.7633 34.6409 22.7197C34.9593 22.7197 35.2646 22.8462 35.4897 23.0713C35.7149 23.2964 35.8414 23.6018 35.8414 23.9202C35.8414 24.2386 35.7149 24.5439 35.4897 24.7691C35.2646 24.9942 34.9593 25.1207 34.6409 25.1207C33.3793 25.0777 32.1224 25.2946 30.9481 25.7579C29.7739 26.2211 28.7075 26.9209 27.8151 27.8137C26.9227 28.7065 26.2235 29.7732 25.7607 30.9477C25.298 32.1221 25.0817 33.3791 25.1252 34.6407C25.125 34.7986 25.0937 34.9549 25.033 35.1007C24.9723 35.2465 24.8834 35.3789 24.7715 35.4903C24.6596 35.6017 24.5268 35.69 24.3808 35.75C24.2347 35.8101 24.0783 35.8408 23.9204 35.8403ZM23.9204 19.2442C23.8192 19.2442 23.7198 19.2703 23.6318 19.3202C23.5437 19.37 23.4701 19.4418 23.4181 19.5286C22.4568 21.1228 21.1204 22.458 19.5252 23.4179C19.4384 23.47 19.3666 23.5437 19.3167 23.6318C19.2669 23.7199 19.2406 23.8194 19.2406 23.9206C19.2406 24.0219 19.2669 24.1214 19.3167 24.2095C19.3666 24.2975 19.4384 24.3712 19.5252 24.4233C21.1195 25.3828 22.4547 26.7178 23.4146 28.3118C23.4667 28.3986 23.5404 28.4704 23.6285 28.5203C23.7166 28.5702 23.8161 28.5964 23.9173 28.5964C24.0185 28.5964 24.118 28.5702 24.2061 28.5203C24.2942 28.4704 24.3679 28.3986 24.42 28.3118C25.3805 26.7179 26.7168 25.3835 28.312 24.4251C28.3988 24.373 28.4706 24.2993 28.5205 24.2112C28.5704 24.1231 28.5966 24.0236 28.5966 23.9224C28.5966 23.8211 28.5704 23.7216 28.5205 23.6335C28.4706 23.5454 28.3988 23.4718 28.312 23.4197C26.7181 22.458 25.3837 21.1209 24.4252 19.5251C24.3732 19.4382 24.2994 19.3663 24.2112 19.3165C24.123 19.2666 24.0234 19.2405 23.9221 19.2407L23.9204 19.2442Z" fill="#0E2D43"/>
</g>
<defs>
<clipPath id="clip0_578_7466">
<rect width="56" height="56" fill="white" transform="translate(12 12)"/>
</clipPath>
</defs>
</svg>
