<svg width="88" height="88" viewBox="0 0 88 88" fill="none" xmlns="http://www.w3.org/2000/svg">
<path d="M0 44C0 19.6995 19.6995 0 44 0C68.3005 0 88 19.6995 88 44C88 68.3005 68.3005 88 44 88C19.6995 88 0 68.3005 0 44Z" fill="white"/>
<path d="M69.7206 57.0451L63.134 40.8319C62.6887 39.7359 61.4346 39.2066 60.3386 39.6517L57.5026 40.8039C56.4066 41.2492 55.8772 42.5034 56.3225 43.5992L56.9176 45.064C54.8352 45.9491 53.2131 46.4814 51.0085 45.3772C48.6378 44.1891 46.0643 44.3811 43.989 45.8239C41.9032 44.373 39.325 44.1974 36.9608 45.3811C34.7632 46.4822 33.1426 45.9484 31.0593 45.0635L31.6542 43.5992C32.0995 42.5032 31.5701 41.2492 30.4742 40.8039L27.6382 39.6517C26.542 39.2066 25.2882 39.7361 24.8428 40.832L18.2561 57.0452C17.8108 58.1414 18.3405 59.3954 19.4363 59.8405L22.2723 60.9926C22.5279 61.0969 22.8011 61.1506 23.0771 61.1509C23.3607 61.1509 23.6442 61.0939 23.9137 60.98C24.4426 60.7567 24.8525 60.342 25.0675 59.8124L25.6486 58.382L27.2788 59.051C27.8865 59.3436 28.3353 59.8719 28.6168 60.624L27.2046 63.0145C26.767 63.7551 26.6457 64.624 26.8633 65.4609C27.0807 66.2977 27.6096 66.9976 28.3523 67.4315C28.8626 67.7307 29.4434 67.8884 30.035 67.8886C30.051 67.8886 30.067 67.8874 30.083 67.8871C29.9386 68.5987 30.0453 69.3181 30.4086 69.9596C30.9947 70.995 32.1496 71.6706 33.3502 71.6806H33.3772C33.9623 71.6806 34.5096 71.5196 34.9846 71.2215C35.2631 71.8315 35.7228 72.3496 36.2991 72.6865C36.9151 73.0466 37.4732 73.179 37.9611 73.179C38.5418 73.179 39.0227 72.9914 39.3825 72.7772C39.477 72.721 39.5698 72.6585 39.6613 72.5909C39.9339 73.1996 40.3906 73.7075 40.9671 74.043C41.4609 74.3323 42.0228 74.4846 42.5951 74.4842C43.4696 74.4842 44.3263 74.1297 44.9462 73.481L45.9598 74.076C46.4598 74.3696 47.0178 74.5196 47.5848 74.5196C47.859 74.5196 48.1353 74.4845 48.4081 74.4135C49.245 74.1956 49.9458 73.6671 50.3812 72.9251C50.6771 72.4209 50.8223 71.8714 50.8295 71.3279C52.1911 71.6756 53.6943 71.0951 54.4313 69.8395C54.7666 69.2699 54.9179 68.6109 54.8648 67.9521C55.193 67.9673 55.5215 67.9327 55.8392 67.8496C56.676 67.6317 57.3768 67.1032 57.8122 66.3612C58.2476 65.6192 58.3676 64.7497 58.1498 63.9129C58.141 63.8789 58.1316 63.845 58.1216 63.8114C58.1557 63.8036 58.1898 63.7954 58.2238 63.7865C59.0607 63.5686 59.7616 63.0401 60.197 62.2981C60.6323 61.5561 60.7523 60.6866 60.5345 59.8497C60.4761 59.626 60.3942 59.409 60.2901 59.2025L62.3255 58.3756L62.9091 59.8121C63.1243 60.3417 63.5341 60.7565 64.063 60.9797C64.3276 61.0921 64.6121 61.1502 64.8996 61.1505C65.1722 61.1505 65.4447 61.0977 65.7043 60.9922L68.5402 59.8401C69.07 59.625 69.4848 59.2151 69.7081 58.6862C69.9314 58.1574 69.9358 57.5744 69.7207 57.0447L69.7206 57.0451ZM23.4457 59.1539C23.426 59.2018 23.3971 59.2454 23.3605 59.2821C23.3239 59.3188 23.2805 59.348 23.2326 59.3679C23.1849 59.3883 23.1337 59.3991 23.0819 59.3997C23.03 59.4003 22.9786 59.3906 22.9305 59.3712L20.0945 58.2191C19.8957 58.1384 19.7961 57.9024 19.8768 57.7037L26.4636 41.4906C26.5252 41.3389 26.6775 41.2449 26.8345 41.2449C26.8831 41.2449 26.9321 41.2539 26.979 41.273L29.815 42.4251C30.0137 42.5059 30.1135 42.742 30.0326 42.9406L23.4457 59.1539ZM29.2347 65.9205C28.897 65.7231 28.6561 65.4036 28.5566 65.0207C28.4571 64.6379 28.5118 64.2415 28.7107 63.9046L30.6651 60.5966C31.0813 59.8919 31.9951 59.6541 32.7022 60.0672C33.0588 60.2772 33.3178 60.6197 33.4227 61.02C33.5191 61.3909 33.4693 61.7691 33.2827 62.0851C33.2827 62.0854 33.2825 62.0856 33.2823 62.0857C33.2823 62.086 33.2821 62.0861 33.282 62.0864L31.3125 65.4327C30.9068 66.1182 29.9557 66.3417 29.2347 65.9205ZM33.3763 69.9307H33.3645C32.7955 69.926 32.206 69.5834 31.9308 69.0974C31.6886 68.6694 31.714 68.2005 32.0063 67.7036L32.8182 66.3244L32.8196 66.3221L32.8205 66.3204L34.79 62.974C35.1252 62.4045 35.5533 62.2446 35.9286 62.2446C36.3231 62.2446 36.659 62.4214 36.7663 62.4845C37.2483 62.7684 37.9135 63.5051 37.3473 64.467L35.1251 68.2426L35.1245 68.2436L35.1232 68.246L34.5636 69.1967C34.2073 69.8019 33.7236 69.9309 33.3762 69.9309L33.3763 69.9307ZM37.182 71.1759C36.842 70.977 36.5883 70.6377 36.4862 70.2449C36.3855 69.8576 36.4372 69.4625 36.632 69.1325L36.6321 69.1322L38.8556 65.3545C38.8601 65.3467 38.864 65.339 38.8685 65.3314C38.8703 65.3284 38.8725 65.3256 38.8743 65.3225C39.2802 64.6345 40.2252 64.4052 40.938 64.822C41.2758 65.0196 41.5168 65.3395 41.6165 65.7229C41.7162 66.1061 41.6615 66.503 41.4627 66.84C41.4593 66.8457 41.4568 66.8517 41.4536 66.8575L39.819 69.6261C39.7849 69.6843 39.7527 69.7435 39.7223 69.8036C39.7013 69.831 39.6819 69.8595 39.6642 69.8891C38.5563 71.7677 37.8308 71.5549 37.1823 71.176L37.182 71.1759ZM41.8497 72.5322C41.512 72.3349 41.2711 72.0152 41.1715 71.6322C41.072 71.2491 41.1267 70.8526 41.3255 70.5157L43.3771 67.0409C43.6547 66.5709 44.1535 66.3086 44.6646 66.3086C44.9198 66.3086 45.1781 66.374 45.4135 66.5116C45.7514 66.7091 45.9923 67.0289 46.0918 67.4119C46.1915 67.7949 46.1366 68.1914 45.9378 68.5282L43.8862 72.003C43.47 72.7079 42.5566 72.9454 41.8497 72.5322ZM48.8717 72.0395C48.6728 72.3782 48.3516 72.6201 47.9671 72.7201C47.5828 72.82 47.1842 72.7657 46.8453 72.5669L45.9097 72.0176L47.4152 69.4679L48.3902 70.0406C49.054 70.4654 49.2703 71.3605 48.8718 72.0394L48.8717 72.0395ZM58.6876 61.4125C58.4887 61.7512 58.1675 61.993 57.783 62.0931C57.3987 62.1931 57.0001 62.1386 56.6612 61.9399L50.2001 58.1475C50.1009 58.0876 49.9909 58.048 49.8763 58.031C49.7617 58.0139 49.6449 58.0198 49.5326 58.0483C49.4203 58.0768 49.3148 58.1273 49.2222 58.1968C49.1296 58.2664 49.0517 58.3537 48.9931 58.4536C48.9344 58.5535 48.8962 58.664 48.8806 58.7788C48.8651 58.8936 48.8724 59.0103 48.9023 59.1222C48.9322 59.2341 48.984 59.339 49.0547 59.4307C49.1255 59.5225 49.2137 59.5993 49.3144 59.6566L55.7755 63.449C56.1142 63.6479 56.356 63.9692 56.456 64.3536C56.5561 64.7381 56.5016 65.1365 56.3026 65.4755C56.1037 65.8142 55.7825 66.056 55.3981 66.1561C55.0137 66.256 54.6152 66.2017 54.2762 66.0029L53.2825 65.4195C53.2817 65.4191 53.2809 65.4186 53.2802 65.4181L46.0438 61.1707C45.8439 61.0568 45.6071 61.0261 45.3847 61.0855C45.1624 61.1449 44.9724 61.2895 44.8559 61.488C44.7394 61.6865 44.7058 61.9229 44.7623 62.146C44.8189 62.3691 44.9611 62.5609 45.1581 62.6799L52.3932 66.9266L52.3942 66.9272L52.3955 66.928C53.0986 67.3417 53.3347 68.25 52.9216 68.9536C52.5228 69.6334 51.6343 69.8814 50.9415 69.5071C50.5861 69.3146 50.2141 69.0914 49.8542 68.8755C49.6686 68.7636 49.4823 68.6528 49.2955 68.543C49.2955 68.543 49.2952 68.543 49.2951 68.5427L47.8892 67.717C47.8835 67.4653 47.8486 67.2152 47.7853 66.9715C47.5678 66.1346 47.039 65.4346 46.2962 65.0005C45.3108 64.4246 44.141 64.4315 43.1896 64.9141C42.9282 64.2401 42.4455 63.6749 41.8208 63.3111C41.4311 63.0825 40.9984 62.9365 40.5497 62.8823C40.1011 62.8281 39.6461 62.8668 39.2131 62.996C38.9861 62.1382 38.3902 61.4096 37.6537 60.9762C36.9015 60.5335 35.9781 60.371 35.1231 60.6092C35.1206 60.5994 35.1187 60.5895 35.1161 60.5797C34.8963 59.7339 34.3381 58.9964 33.5847 58.5561C32.3231 57.819 30.759 58.036 29.7387 58.9851C29.2972 58.3104 28.7133 57.7925 28.0052 57.4589C27.9918 57.4526 27.9782 57.4466 27.9645 57.441L26.3065 56.7606L30.4 46.6847C32.6647 47.6442 34.8756 48.3832 37.7438 46.9457C39.395 46.1191 41.1206 46.1544 42.6056 47.0149C40.02 49.274 37.5448 51.0247 35.2463 52.2177C35.0408 52.3244 34.886 52.5082 34.8157 52.7288C34.7454 52.9494 34.7654 53.1889 34.8713 53.3947C35.6621 54.9316 37.0746 56.4115 39.5823 56.4114C40.8198 56.4114 42.3249 56.0505 44.1526 55.1586C46.5767 54.0564 49.12 54.2055 51.7122 55.6017L58.1586 59.3854L58.16 59.3862C58.1918 59.405 58.222 59.4257 58.2521 59.4466L58.3138 59.492C58.5735 59.6922 58.7589 59.9734 58.8405 60.291C58.9405 60.6755 58.8861 61.0739 58.6871 61.4127L58.6876 61.4125ZM58.988 57.8427L52.5847 54.0844C52.5758 54.0791 52.5668 54.074 52.5577 54.0691C49.4488 52.3896 46.3731 52.222 43.4162 53.5711C43.4091 53.5743 43.4021 53.5777 43.3951 53.5811C39.5171 55.4769 37.7893 54.5595 36.8755 53.3257C39.1297 52.0562 41.5191 50.3114 43.9911 48.1286C44.0112 48.1109 44.0305 48.0922 44.0488 48.0727C45.7171 46.302 48.0832 45.8687 50.2241 46.9419C53.1 48.3821 55.3116 47.6451 57.5758 46.6854L61.6666 56.7546L58.9879 57.8429L58.988 57.8427ZM68.0958 58.0059C68.0759 58.0538 68.0468 58.0973 68.01 58.1339C67.9732 58.1705 67.9296 58.1994 67.8816 58.2191L65.0456 59.3712C64.9975 59.3905 64.946 59.4001 64.8942 59.3995C64.8424 59.3989 64.7911 59.3881 64.7435 59.3677C64.6956 59.3479 64.6521 59.3187 64.6155 59.282C64.5789 59.2452 64.5499 59.2016 64.5302 59.1536L57.9435 42.9405C57.8627 42.7419 57.9623 42.5057 58.1612 42.425L60.9972 41.2729C61.1957 41.1921 61.432 41.2919 61.5126 41.4905L68.0992 57.7036C68.1186 57.7517 68.1282 57.8032 68.1277 57.855C68.1271 57.9069 68.1163 57.9581 68.0958 58.0057V58.0059ZM33.955 26.3512C34.0016 26.4259 34.0116 26.4829 33.9935 26.5687L33.4322 29.209C33.3262 29.7033 33.4074 30.2194 33.6602 30.6572C33.913 31.095 34.3193 31.4234 34.8003 31.5787L35.4352 31.785L32.6293 38.7597C32.4381 39.2347 32.4975 39.7289 32.7881 40.0817C33.075 40.43 33.5417 40.5814 34.0363 40.4861L37.0391 39.9089L38.9492 42.2964C39.2167 42.6306 39.5838 42.8165 39.9607 42.8165C40.0275 42.8165 40.0945 42.8106 40.1612 42.7987C40.6113 42.7189 40.9772 42.3815 41.1401 41.8959L43.4393 35.0397L43.8777 34.8626C43.9593 34.8296 44.0171 34.8297 44.0986 34.8626L44.5368 35.0397L46.8361 41.896C46.999 42.3815 47.3648 42.7189 47.815 42.7987C47.8812 42.8105 47.9482 42.8165 48.0155 42.8165C48.3923 42.8165 48.7595 42.6306 49.027 42.2964L50.9372 39.9089L53.94 40.4861C54.4353 40.5815 54.9013 40.43 55.1881 40.0819C55.4786 39.7291 55.5381 39.235 55.347 38.7599L52.5408 31.785L53.1757 31.5787C53.6568 31.4234 54.0631 31.095 54.3159 30.6572C54.5687 30.2194 54.6499 29.7033 54.5438 29.209L53.9826 26.569C53.9643 26.483 53.9745 26.426 54.0211 26.3514L55.4515 24.0624C55.7202 23.6341 55.8203 23.1214 55.7325 22.6235C55.6447 22.1256 55.3752 21.6781 54.9762 21.3676L52.8491 19.706C52.7799 19.6519 52.751 19.6019 52.7387 19.5147L52.3631 16.842C52.2171 15.8026 51.3161 15.0442 50.267 15.083L47.5695 15.1772C47.4815 15.1797 47.4271 15.1605 47.3618 15.1017L45.3561 13.2957C44.9811 12.9567 44.4935 12.7689 43.988 12.7689C43.4824 12.7689 42.9948 12.9567 42.6198 13.2957L40.6141 15.1017C40.5487 15.1607 40.4937 15.1804 40.4065 15.1774L37.709 15.0831C36.662 15.0452 35.7587 15.8025 35.6127 16.842L35.2371 19.5149C35.2248 19.6019 35.196 19.652 35.1267 19.706L32.9996 21.3677C32.6006 21.6782 32.3311 22.1258 32.2433 22.6236C32.1555 23.1215 32.2556 23.6343 32.5243 24.0625L33.9547 26.3515L33.955 26.3512ZM39.7597 40.5081L37.7457 37.991L34.5801 38.5996L37.1036 32.327L37.3676 32.4127C37.4512 32.4399 37.4953 32.477 37.5367 32.5546L38.804 34.9377C39.0346 35.373 39.4151 35.7101 39.875 35.8866C40.3349 36.0632 40.8432 36.0672 41.3058 35.898L39.7598 40.508L39.7597 40.5081ZM53.3962 38.5996L50.2306 37.991L48.2165 40.5081L46.6705 35.8979C46.8943 35.9803 47.1309 36.023 47.3695 36.0239C47.7403 36.0238 48.1042 35.9227 48.4219 35.7313C48.7396 35.54 48.9991 35.2657 49.1726 34.9379L50.4397 32.5546C50.481 32.477 50.5252 32.44 50.609 32.4127L50.8728 32.327L53.3965 38.5996H53.3962ZM34.0771 22.7465L36.2042 21.0847C36.6301 20.752 36.8948 20.2932 36.9701 19.7581L37.3457 17.0854C37.3671 16.9331 37.4898 16.8256 37.648 16.8317L40.3455 16.926C40.8862 16.9452 41.3832 16.7637 41.785 16.402L43.791 14.5959C43.8446 14.5463 43.915 14.5187 43.988 14.5187C44.0611 14.5187 44.1315 14.5463 44.1851 14.5959L46.1912 16.4021C46.593 16.7636 47.092 16.9465 47.6307 16.926L50.3282 16.8317C50.4852 16.8259 50.6088 16.933 50.6303 17.0852L51.006 19.758C51.0812 20.2932 51.346 20.752 51.7718 21.0847L53.899 22.7465C54.0202 22.8411 54.049 23.0045 53.9675 23.1349L52.5371 25.424C52.2508 25.8822 52.1588 26.4039 52.2711 26.9326L52.8323 29.5727C52.8485 29.6441 52.8371 29.7188 52.8006 29.7821C52.764 29.8455 52.7049 29.8927 52.6351 29.9144L50.0682 30.7484C49.5541 30.9154 49.1482 31.2559 48.8945 31.7331L47.6273 34.1162C47.5939 34.1813 47.5372 34.2313 47.4685 34.2563C47.3998 34.2814 47.3241 34.2795 47.2567 34.2512L44.7541 33.2401C44.5036 33.1389 44.246 33.0882 43.9881 33.0882C43.7302 33.0882 43.4727 33.1389 43.2222 33.2401L40.7197 34.2512C40.6523 34.2795 40.5767 34.2814 40.508 34.2564C40.4392 34.2314 40.3825 34.1814 40.349 34.1164L39.0817 31.7332C38.8281 31.256 38.4222 30.9155 37.9081 30.7485L35.3411 29.9145C35.2713 29.8928 35.2122 29.8456 35.1756 29.7823C35.1391 29.719 35.1277 29.6443 35.1438 29.573L35.7051 26.9326C35.8173 26.404 35.7253 25.8825 35.4391 25.4241L34.0087 23.1351C33.9692 23.0736 33.9542 22.9995 33.9669 22.9275C33.9796 22.8555 34.019 22.791 34.0772 22.7467L34.0771 22.7465ZM43.988 31.4662C47.8865 31.4662 51.0582 28.2946 51.0582 24.3961C51.0582 20.4976 47.8866 17.3259 43.988 17.3259C40.0893 17.3259 36.9177 20.4976 36.9177 24.3961C36.9177 28.2946 40.0893 31.4662 43.988 31.4662ZM43.988 19.076C46.9216 19.076 49.3082 21.4626 49.3082 24.3962C49.3082 27.3299 46.9216 29.7164 43.988 29.7164C41.0543 29.7164 38.6677 27.3299 38.6677 24.3962C38.6677 21.4626 41.0543 19.076 43.988 19.076ZM40.4317 25.1194C40.3519 25.0367 40.2891 24.9391 40.247 24.8322C40.2049 24.7253 40.1843 24.6112 40.1863 24.4963C40.1883 24.3814 40.2129 24.268 40.2587 24.1626C40.3046 24.0573 40.3707 23.9619 40.4533 23.8821C40.536 23.8023 40.6335 23.7395 40.7404 23.6974C40.8473 23.6552 40.9615 23.6346 41.0764 23.6366C41.1912 23.6386 41.3046 23.6632 41.41 23.709C41.5154 23.7548 41.6107 23.821 41.6905 23.9036L43.0192 25.2795L46.2618 21.6445C46.338 21.5575 46.4306 21.4865 46.5344 21.4356C46.6381 21.3846 46.7509 21.3547 46.8663 21.3476C46.9816 21.3405 47.0973 21.3563 47.2065 21.3941C47.3157 21.432 47.4163 21.491 47.5026 21.568C47.5888 21.6449 47.659 21.7382 47.709 21.8424C47.759 21.9466 47.7879 22.0597 47.7939 22.1751C47.8 22.2905 47.7831 22.406 47.7443 22.5149C47.7055 22.6237 47.6454 22.7238 47.5677 22.8094L43.6975 27.1477C43.6173 27.2376 43.5195 27.3099 43.4101 27.3602C43.3008 27.4105 43.1822 27.4377 43.0618 27.4401L43.0445 27.4402C42.927 27.4402 42.8107 27.4166 42.7026 27.3707C42.5945 27.3248 42.4967 27.2576 42.4151 27.1731L40.4316 25.1192L40.4317 25.1194Z" fill="#0E2D43"/>
</svg>
