<svg width="88" height="88" viewBox="0 0 88 88" fill="none" xmlns="http://www.w3.org/2000/svg">
<path d="M0 44C0 19.6995 19.6995 0 44 0C68.3005 0 88 19.6995 88 44C88 68.3005 68.3005 88 44 88C19.6995 88 0 68.3005 0 44Z" fill="white"/>
<path d="M72.1601 27.628C71.6351 22.545 65.6901 22.37 64.9841 26.834C64.3881 27.394 62.9501 28.843 62.3911 30.269C61.8041 31.771 61.1451 36.979 60.9951 38.215C60.0901 40.36 55.3821 43.297 55.2261 43.129C44.8051 48.296 45.4681 55.05 45.7171 57.593C45.7171 57.593 45.7351 66.406 45.7041 71.655C45.6901 72.195 46.1641 72.671 46.7041 72.661H55.7241C56.2851 72.674 56.7711 72.154 56.7221 71.595L56.3621 66.209C56.293 65.2391 56.4483 64.2662 56.8159 63.366C57.1836 62.4657 57.7537 61.6623 58.4821 61.018C61.7481 58.117 66.9531 53.929 67.0321 53.866C68.8181 52.326 70.4601 50.05 71.1171 48.202C74.2981 39.258 72.2491 28.1 72.1601 27.63V27.628ZM64.2551 30.997C64.4261 30.56 64.7581 30.075 65.1241 29.621L64.7661 35.374C64.2552 35.5218 63.7645 35.7321 63.3051 36C63.6051 33.895 63.9741 31.715 64.2551 30.997ZM69.2331 47.53C68.6911 49.055 67.2491 51.037 65.7531 52.327C65.7011 52.369 60.4581 56.588 57.1551 59.521C56.1979 60.3672 55.4485 61.4225 54.965 62.605C54.4815 63.7876 54.2769 65.0656 54.3671 66.34L54.6561 70.659H47.7121C47.7371 66.253 47.7091 57.396 47.7091 57.396C47.4771 55.025 46.9331 49.473 56.0701 44.94C56.2101 44.879 59.5011 43.429 61.5891 40.821C62.7361 38.059 68.6181 34.598 65.8271 40.262C63.4311 44.603 57.6301 50.617 57.5711 50.678C57.4788 50.7722 57.406 50.8837 57.357 51.0061C57.308 51.1284 57.2836 51.2593 57.2854 51.3911C57.2871 51.523 57.3149 51.6531 57.3672 51.7742C57.4194 51.8952 57.4951 52.0047 57.5898 52.0964C57.6845 52.1881 57.7964 52.2602 57.9191 52.3085C58.0418 52.3567 58.1728 52.3803 58.3046 52.3777C58.4364 52.3752 58.5665 52.3466 58.6872 52.2936C58.8079 52.2406 58.917 52.1643 59.0081 52.069C59.2531 51.815 65.0511 45.803 67.5761 41.229C68.8511 38.92 68.8851 36.902 67.6661 35.83C67.4068 35.602 67.1026 35.431 66.7731 35.328L67.3351 26.295C68.4571 24.497 69.9931 26.196 70.1961 27.998C70.2801 28.446 72.2351 39.089 69.2331 47.53ZM32.7771 43.129C32.6211 43.296 27.9131 40.36 27.0081 38.215C26.8581 36.979 26.1981 31.771 25.6121 30.269C25.0531 28.843 23.6151 27.394 23.0191 26.834C22.3131 22.37 16.3681 22.545 15.8431 27.628C15.7541 28.099 13.7051 39.256 16.8861 48.2C17.5431 50.048 19.1851 52.324 20.9711 53.864C21.0501 53.927 26.2551 58.115 29.5211 61.016C30.2494 61.6603 30.8195 62.4637 31.1872 63.364C31.5548 64.2642 31.7102 65.2371 31.6411 66.207L31.2811 71.593C31.2321 72.152 31.7181 72.672 32.2791 72.659H41.2991C41.8391 72.669 42.3131 72.193 42.2991 71.653C42.2691 66.405 42.2861 57.591 42.2861 57.591C42.5351 55.048 43.1981 48.294 32.7771 43.127V43.129ZM23.7491 30.997C24.0301 31.715 24.3991 33.894 24.6991 36C24.2396 35.7322 23.7489 35.522 23.2381 35.374L22.8801 29.621C23.2461 30.075 23.5781 30.56 23.7491 30.997ZM40.2961 57.397C40.2961 57.397 40.2681 66.253 40.2931 70.66H33.3491L33.6381 66.341C33.7282 65.0666 33.5236 63.7886 33.0401 62.606C32.5566 61.4235 31.8072 60.3682 30.8501 59.522C27.5471 56.588 22.3041 52.37 22.2521 52.328C20.7561 51.038 19.3141 49.057 18.7721 47.531C15.7701 39.09 17.7251 28.448 17.8091 28C18.0121 26.198 19.5481 24.499 20.6701 26.297L21.2321 35.33C20.9031 35.435 20.6021 35.6 20.3391 35.832C19.1201 36.904 19.1531 38.923 20.4291 41.231C22.9541 45.805 28.7521 51.817 28.9971 52.071C29.1819 52.2597 29.434 52.3676 29.6981 52.371C29.9622 52.3745 30.217 52.2734 30.4068 52.0896C30.5966 51.9059 30.706 51.6546 30.7111 51.3905C30.7162 51.1263 30.6166 50.8709 30.4341 50.68C30.3751 50.619 24.5751 44.605 22.1781 40.264C19.3871 34.599 25.2691 38.061 26.4161 40.823C28.5041 43.431 31.7951 44.882 31.9351 44.942C41.0731 49.475 40.5291 55.026 40.2961 57.397ZM59.9531 15.084C59.5619 14.9403 59.1348 14.926 58.7349 15.0434C58.3351 15.1608 57.9835 15.4036 57.7321 15.736C55.7251 18.342 51.6231 19.871 45.8691 20.154C33.2721 20.776 29.9441 31.112 29.9441 36.491C29.9441 36.954 30.2611 37.355 30.7111 37.464C34.7151 38.424 38.3461 38.902 41.5931 38.902C46.7741 38.902 50.9751 37.681 54.1451 35.246C60.2691 30.539 61.1621 22.6 61.3001 17.036C61.3108 16.61 61.1862 16.1916 60.9442 15.8409C60.7021 15.4901 60.3551 15.2252 59.9531 15.084ZM52.9261 33.66C48.7381 36.879 42.3931 37.702 34.0411 36.129C38.4411 32.619 44.7781 30.148 51.9071 26.939C42.2741 27.266 34.7481 32.426 32.1351 34.465C32.7401 30.627 35.2811 22.681 45.9671 22.153C52.4161 21.835 56.9071 20.087 59.3001 16.987C59.1721 22.14 58.3711 29.474 52.9261 33.66Z" fill="#0E2D43"/>
</svg>
