<svg width="96" height="96" viewBox="0 0 96 96" fill="none" xmlns="http://www.w3.org/2000/svg">
<path d="M0 48C0 21.4903 21.4903 0 48 0C74.5097 0 96 21.4903 96 48C96 74.5097 74.5097 96 48 96C21.4903 96 0 74.5097 0 48Z" fill="white"/>
<g clip-path="url(#clip0_578_7445)">
<path d="M80 42.8387H77.6804L74.2232 44.6578C73.8342 44.4431 73.4294 44.261 72.9929 44.1517L68.6441 43.0635V42.569C70.568 41.2263 71.7419 39.0081 71.7419 36.6452V34.8408C71.7419 30.8307 68.5997 27.4748 64.7379 27.3578C64.5418 27.3528 64.3488 27.3599 64.1547 27.3694L65.2822 24.7298L59.816 19.2652L56.5938 21.3625C55.3747 20.6753 54.0774 20.1371 52.7298 19.7596L51.9339 16H44.0671L43.2712 19.7606C41.9236 20.1379 40.6263 20.676 39.4072 21.3634L36.185 19.2661L30.7232 24.7279L31.8316 27.3694C31.7893 27.3675 31.749 27.3599 31.7067 27.3588C29.7299 27.3014 27.868 28.0227 26.4537 29.3956C25.0373 30.7677 24.2581 32.609 24.2581 34.5806V36.6452C24.2581 39.0081 25.431 41.2253 27.3548 42.568V43.0635L24.5182 43.7726L19.3765 40.7742H16V62.1639L26.1552 65.5484H28.133L28.38 64.6835L31.4929 66.5519C31.5439 68.2445 32.9012 69.6063 34.5923 69.6658C34.6516 71.3497 36.0052 72.7032 37.689 72.7626C37.7484 74.4464 39.1019 75.8 40.7858 75.8594C40.8472 77.5827 42.2586 78.9677 43.996 78.9677C44.6412 78.9677 45.2737 78.7666 45.8054 78.4083L46.7197 79.2157C47.2937 79.7211 48.0322 80 48.7969 80H48.9879C50.7057 80 52.1034 78.6114 52.125 76.8992C53.8241 76.8775 55.2001 75.5015 55.2218 73.8024C56.9219 73.7808 58.2988 72.4027 58.3186 70.7026C60.0343 70.6623 61.4194 69.2606 61.4194 67.5352C61.4194 67.4315 61.4142 67.3292 61.4037 67.2258L80 57.9284V42.8387ZM69.6774 34.8408V36.6452C69.6774 38.4774 68.6875 40.189 67.0938 41.1119L66.5777 41.4103L66.5815 44.6769L71.739 45.9652L60.3871 51.94V49.1594C60.3871 47.7716 59.8266 46.501 58.9088 45.5619L62.4516 44.6769V41.4077L61.9365 41.1099C60.3437 40.189 59.3548 38.4773 59.3548 36.6452V34.5806C59.3548 33.1729 59.9114 31.8564 60.9228 30.8761C61.9334 29.8961 63.2742 29.368 64.6759 29.4223C67.4334 29.505 69.6774 31.9359 69.6774 34.8408ZM49.5564 51.1285L44.8836 49.6351C42.7541 48.9525 40.449 48.8508 38.2692 49.3337L37.6774 49.4648V49.1592C37.6774 47.736 38.6426 46.5 40.0227 46.1542L45.9355 44.6769V41.4077L45.4204 41.1099C43.8276 40.189 42.8387 38.4773 42.8387 36.6452V34.5806C42.8387 33.1729 43.3952 31.8564 44.4067 30.8761C45.4173 29.8961 46.7667 29.368 48.1597 29.4223C50.9173 29.505 53.1613 31.9359 53.1613 34.8408V36.6452C53.1613 38.4774 52.1714 40.189 50.5777 41.1119L50.0615 41.4103L50.0654 44.6769L55.9773 46.1543C56.6475 46.3216 57.2425 46.7082 57.6675 47.2528C58.0925 47.7973 58.3231 48.4683 58.3226 49.1591V53.0271L58.0675 53.1613H57.435L51.0886 51.3477C50.5886 51.2062 50.0735 51.1481 49.5564 51.1285ZM37.9088 31.4495C39.8472 27.6935 43.749 25.2903 48 25.2903C52.2107 25.2903 56.0957 27.6613 58.0489 31.3665C57.5497 32.3643 57.29 33.4649 57.2903 34.5806V36.6452C57.2903 39.008 58.4632 41.2253 60.3871 42.568V43.0635L56.2581 44.0973L52.128 43.0635V42.569C54.0519 41.2263 55.2258 39.008 55.2258 36.6452V34.8408C55.2258 30.8306 52.0836 27.4748 48.2218 27.3578C46.2459 27.2999 44.3831 28.0217 42.9688 29.3947C41.5534 30.7676 40.7742 32.6089 40.7742 34.5806V36.6452C40.7742 39.008 41.9471 41.2253 43.871 42.568V43.0635L39.7419 44.0973L35.6119 43.0635V42.569C37.5357 41.2263 38.7097 39.008 38.7097 36.6452V34.8408C38.7097 33.6261 38.4173 32.4728 37.9088 31.4495ZM33.1613 25.2067L36.4592 21.9088L39.3619 23.7978L39.9173 23.4572C41.309 22.6043 42.813 21.9797 44.3871 21.6034L45.0222 21.4511L45.7404 18.0645H50.2606L50.9768 21.4501L51.6119 21.6018C53.1861 21.9788 54.6901 22.6034 56.0815 23.4561L56.637 23.7968L59.5399 21.9077L62.8335 25.2026L61.6627 27.944C60.8658 28.2868 60.1268 28.7692 59.4837 29.3926C59.4414 29.4339 59.405 29.4783 59.3637 29.5206C56.932 25.6548 52.6325 23.2258 48 23.2258C43.3342 23.2258 39.0227 25.6774 36.5968 29.5827C35.9476 28.9032 35.1754 28.3528 34.3196 27.9683L33.1613 25.2067ZM29.4194 44.6769V41.4077L28.9043 41.1099C27.3115 40.189 26.3226 38.4773 26.3226 36.6452V34.5806C26.3226 33.1729 26.8791 31.8564 27.8906 30.8761C28.9012 29.8961 30.2449 29.368 31.6436 29.4223C34.4012 29.505 36.6452 31.9359 36.6452 34.8408V36.6452C36.6452 38.4774 35.6552 40.189 34.0615 41.1119L33.5454 41.4103L33.5493 44.6769L37.0912 45.5621C36.1734 46.5009 35.6129 47.7716 35.6129 49.1591V49.9237L32.3932 50.6395L32.4768 50.3471L32.5161 48.4394L27.0721 45.2635L29.4194 44.6769ZM18.0645 42.8387H18.817L26.2409 47.1689L22.495 62.1521L18.0645 60.6748V42.8387ZM26.4899 63.4839L24.4582 62.807L28.0973 48.2521L30.4516 49.6249V49.9197L26.5766 63.4839H26.4899ZM33.5484 66.4556C33.5491 66.1488 33.6708 65.8547 33.8871 65.637L35.7017 63.8226C35.9192 63.6064 36.2133 63.4847 36.52 63.4839C37.1582 63.4839 37.6773 64.003 37.6773 64.6412C37.6766 64.948 37.5549 65.2421 37.3386 65.4597L35.524 67.2742C35.3065 67.4904 35.0125 67.6121 34.7058 67.6129C34.0676 67.6129 33.5485 67.0938 33.5485 66.4556H33.5484ZM36.6452 69.5524C36.6459 69.2456 36.7676 68.9514 36.9839 68.7338L38.7985 66.9194C39.016 66.7031 39.31 66.5814 39.6168 66.5806C40.255 66.5806 40.7741 67.0997 40.7741 67.7379C40.7733 68.0447 40.6516 68.3389 40.4354 68.5565L38.6208 70.371C38.4032 70.5871 38.1093 70.7089 37.8026 70.7097C37.1644 70.7097 36.6453 70.1906 36.6453 69.5524H36.6452ZM39.7419 72.6492C39.7427 72.3423 39.8644 72.0482 40.0806 71.8306L41.8952 70.0161C42.1128 69.7999 42.4068 69.6782 42.7135 69.6774C43.3517 69.6774 43.8708 70.1965 43.8708 70.8347C43.8701 71.1415 43.7484 71.4357 43.5321 71.6533L41.7175 73.4677C41.5 73.6839 41.206 73.8056 40.8994 73.8064C40.2612 73.8064 39.7421 73.2874 39.7421 72.6492H39.7419ZM43.996 76.9032C43.3578 76.9032 42.8387 76.3841 42.8387 75.7459C42.8394 75.4391 42.9611 75.145 43.1774 74.9274L44.992 73.1129C45.2096 72.8967 45.5036 72.775 45.8103 72.7742C46.4485 72.7742 46.9676 73.2933 46.9676 73.9315C46.9669 74.2383 46.8452 74.5324 46.6289 74.7501L44.8143 76.5645C44.5968 76.7807 44.3028 76.9024 43.9961 76.9032H43.996ZM48.9879 77.9355H48.7969C48.5348 77.9358 48.2817 77.8398 48.0857 77.6658L47.3135 76.9849L48.0886 76.2097C48.3654 75.9329 48.5803 75.6039 48.739 75.2505L49.6774 76.0317C49.7987 76.1327 49.8963 76.2592 49.9632 76.4021C50.0301 76.5451 50.0647 76.701 50.0645 76.8588C50.0645 77.4526 49.5817 77.9355 48.9879 77.9355ZM58.2449 68.6452H58.0666C57.8069 68.6451 57.5555 68.5537 57.3564 68.3871L51.7586 63.7223L50.436 65.309L55.872 69.8382C55.993 69.9394 56.0903 70.0659 56.157 70.2088C56.2237 70.3517 56.2582 70.5076 56.2581 70.6653C56.2581 71.2591 55.7752 71.7419 55.1814 71.7419H54.9561C54.7044 71.7416 54.4608 71.6531 54.2676 71.4919L48.6608 66.82L47.3382 68.4067L52.7742 72.9365C52.8956 73.0371 52.9933 73.1632 53.0602 73.3059C53.1271 73.4487 53.1616 73.6044 53.1613 73.7621C53.1613 74.3559 52.6785 74.8387 52.0846 74.8387C51.6885 74.8387 51.3025 74.6981 50.9985 74.4455L48.6946 72.5252C48.187 71.4879 47.1441 70.7646 45.923 70.7213C45.8634 69.0374 44.5101 67.6839 42.8262 67.6245C42.7666 65.9406 41.4133 64.5871 39.7294 64.5277C39.6688 62.8044 38.2575 61.4194 36.5201 61.4194C35.6719 61.4194 34.8417 61.7631 34.2419 62.363L32.4275 64.1774C32.3191 64.2858 32.2293 64.4088 32.1381 64.5307L28.9672 62.628L31.747 52.8992L38.7157 51.3498C40.5439 50.941 42.4712 51.0298 44.2541 51.6003L45.7747 52.0867L40.6195 54.6643C39.4414 55.2546 38.7097 56.4395 38.7097 57.7572V57.9612C38.7097 59.868 40.261 61.4194 42.1677 61.4194C42.7943 61.4194 43.4108 61.249 43.9466 60.9259L47.7903 58.6209C48.5625 58.1583 49.5988 58.2596 50.2657 58.8594L58.9874 66.7086C59.1028 66.8132 59.1952 66.9407 59.2585 67.0831C59.3218 67.2254 59.3546 67.3794 59.3548 67.5352C59.3548 68.1477 58.8574 68.6452 58.2449 68.6452ZM77.9355 56.6523L60.5449 65.3483C60.4883 65.2883 60.4291 65.2308 60.3675 65.1759L51.6472 57.3266C50.8846 56.6379 49.8934 56.2571 48.8658 56.2581C48.1124 56.2582 47.3732 56.4631 46.7272 56.8508L42.8819 59.1566C42.6664 59.2865 42.4194 59.355 42.1677 59.3548C41.3987 59.3548 40.7742 58.7303 40.7742 57.9613V57.757C40.7742 57.2254 41.0697 56.7485 41.5444 56.5111L47.3025 53.632C48.2877 53.1386 49.4577 53.0281 50.5196 53.3337L57.0066 55.1866L58.5777 55.2258L77.9355 45.0374V56.6523Z" fill="#0E2D43"/>
</g>
<defs>
<clipPath id="clip0_578_7445">
<rect width="64" height="64" fill="white" transform="translate(16 16)"/>
</clipPath>
</defs>
</svg>
