<svg width="48" height="48" viewBox="0 0 48 48" fill="none" xmlns="http://www.w3.org/2000/svg">
<rect width="48" height="48" rx="12" fill="#FFF0F0"/>
<g clip-path="url(#clip0_532_12948)">
<path d="M21.4912 36C16.2577 36 12 31.743 12 26.5105C12 21.278 16.2577 17.021 21.4912 17.021C23.2209 17.021 24.9152 17.4929 26.391 18.3857L25.5943 19.7023C24.3588 18.9549 22.9399 18.5598 21.4912 18.5598C17.1064 18.5598 13.5391 22.1265 13.5391 26.5105C13.5391 30.8945 17.1064 34.4612 21.4912 34.4612C25.8759 34.4612 29.4432 30.8945 29.4432 26.5105C29.4432 25.062 29.0482 23.6435 28.3006 22.4082L29.6175 21.6116C30.5104 23.0872 30.9824 24.7812 30.9824 26.5105C30.9824 31.743 26.7246 36 21.4912 36Z" fill="#FF0000"/>
<path d="M21.4912 31.7806C18.5847 31.7806 16.2202 29.4164 16.2202 26.5105C16.2202 23.6045 18.5847 21.2404 21.4912 21.2404C22.0519 21.2404 22.6042 21.3281 23.1327 21.5012L22.6537 22.9636C22.2784 22.841 21.886 22.7787 21.4912 22.7792C19.4334 22.7792 17.7593 24.453 17.7593 26.5104C17.7593 28.5678 19.4334 30.2416 21.4912 30.2416C23.5489 30.2416 25.2231 28.5678 25.2231 26.5104C25.2236 26.0988 25.1559 25.6899 25.0227 25.3005L26.4788 24.8017C26.6668 25.3507 26.7622 25.9255 26.7622 26.5104C26.7622 29.4164 24.3976 31.7806 21.4912 31.7806Z" fill="#FF0000"/>
<path d="M35.3556 14.9549L33.352 14.6518L33.0488 12.6485C32.9564 12.0376 32.182 11.7813 31.7438 12.2195L28.8619 15.1009C28.7769 15.1859 28.713 15.2895 28.6753 15.4036C28.6376 15.5177 28.6272 15.6391 28.6448 15.7579L28.9674 17.9308L21.8879 25.0238C21.7585 24.9892 21.6251 24.9717 21.4912 24.9717C20.6425 24.9717 19.9521 25.662 19.9521 26.5105C19.9521 27.359 20.6425 28.0493 21.4912 28.0493C22.3399 28.0493 23.0303 27.359 23.0303 26.5105C23.0303 26.3722 23.0117 26.2383 22.9773 26.1108L30.0543 19.0204L32.2415 19.3574C32.4813 19.3944 32.7312 19.3126 32.9029 19.141L35.7848 16.2597C36.0743 16.0336 36.1897 15.059 35.3556 14.9549ZM32.0904 17.7772L30.4633 17.5264L30.2242 15.9151L31.7549 14.3846L31.915 15.4428C31.9396 15.6053 32.0156 15.7556 32.1318 15.8718C32.248 15.988 32.3983 16.0639 32.5608 16.0884L33.6192 16.2485L32.0904 17.7772Z" fill="#FF0000"/>
</g>
<defs>
<clipPath id="clip0_532_12948">
<rect width="24" height="24" fill="white" transform="translate(12 12)"/>
</clipPath>
</defs>
</svg>
