<svg width="99" height="80" viewBox="0 0 99 80" fill="none" xmlns="http://www.w3.org/2000/svg">
<path fill-rule="evenodd" clip-rule="evenodd" d="M98.7911 39.6296L49.3953 0L0 39.6296H13.0988V80H84.2099V39.6296H98.7911Z" fill="#12537A"/>
<path fill-rule="evenodd" clip-rule="evenodd" d="M65.9329 47.2553C65.5895 46.519 65.1243 45.9063 64.5718 45.4701C65.1243 45.0334 65.5895 44.4198 65.9329 43.6844C66.2768 44.4207 66.7425 45.0334 67.2949 45.4701C66.7424 45.9063 66.2768 46.519 65.9329 47.2553ZM68.7409 44.8891C67.6126 44.5219 66.728 43.0833 66.5409 41.3088C66.4649 40.5868 65.402 40.5859 65.3253 41.3088C65.1377 43.0824 64.2531 44.5219 63.1248 44.8891C62.5649 45.0705 62.5647 45.8678 63.1248 46.0505C64.2531 46.4182 65.1377 47.8567 65.3253 49.6307C65.402 50.3542 66.4648 50.3533 66.5409 49.6307C66.728 47.8566 67.6126 46.4182 68.7409 46.0505C69.3025 45.8672 69.2995 45.0694 68.7409 44.8891ZM35.3345 36.324C35.7979 37.4499 36.4814 38.3682 37.3116 38.9659C36.4814 39.5645 35.7979 40.4829 35.3345 41.6083C34.8712 40.4829 34.1867 39.5645 33.3565 38.9659C34.1867 38.3682 34.8712 37.45 35.3345 36.324ZM31.8467 39.5469C33.3267 40.0294 34.484 41.8953 34.727 44.1915C34.8033 44.9142 35.8652 44.9145 35.9416 44.1915C36.1852 41.8953 37.3429 40.0293 38.822 39.5469C39.3818 39.3647 39.3822 38.5683 38.822 38.3855C37.3429 37.903 36.1852 36.0366 35.9416 33.7409C35.9257 33.591 35.8548 33.4522 35.7428 33.3514C35.6307 33.2505 35.4853 33.1946 35.3345 33.1945C35.1837 33.1945 35.0382 33.2504 34.9261 33.3513C34.8139 33.4521 34.743 33.5909 34.727 33.7409C34.4835 36.0366 33.3258 37.9031 31.8467 38.3855C31.2848 38.5687 31.2869 39.3655 31.8467 39.5469ZM43.3976 28.408C43.7414 29.1443 44.2071 29.757 44.7596 30.1937C44.2071 30.63 43.7414 31.2426 43.3976 31.9789C43.0537 31.2426 42.589 30.6299 42.0365 30.1937C42.5889 29.757 43.0537 29.1434 43.3976 28.408ZM40.5895 30.7742C41.7178 31.1419 42.6024 32.5805 42.79 34.3544C42.8667 35.0776 43.9293 35.0771 44.0054 34.3544C44.1935 32.5805 45.0773 31.1419 46.2055 30.7742C46.7656 30.5915 46.7653 29.7944 46.2055 29.6128C45.0772 29.2451 44.1935 27.8061 44.0054 26.0325C43.9293 25.3104 42.8666 25.3099 42.79 26.0325C42.6024 27.8061 41.7178 29.2451 40.5895 29.6128C40.0296 29.7944 40.0294 30.5912 40.5895 30.7742ZM50.8824 61.2871H49.205V59.6093H50.8824V61.2871ZM51.0322 58.3871H49.0551C48.4635 58.3871 47.9828 58.8677 47.9828 59.4589V61.4369C47.9828 62.0277 48.4634 62.5092 49.0551 62.5092H51.0322C51.6233 62.5092 52.104 62.0277 52.104 61.4369V59.4589C52.104 58.8678 51.6233 58.3871 51.0322 58.3871ZM45.4968 55.9015H43.8189V54.2237H45.4968V55.9015ZM45.6466 53.002H43.6686C43.0783 53.002 42.5967 53.4821 42.5967 54.0738V56.0508C42.5967 56.6425 43.0783 57.1235 43.6686 57.1235H45.6466C46.2382 57.1235 46.7188 56.6425 46.7188 56.0508V54.0738C46.7189 53.4822 46.2382 53.002 45.6466 53.002ZM50.8824 55.9015H49.205V54.2237H50.8824V55.9015ZM51.0322 53.002H49.0551C48.4635 53.002 47.9828 53.4821 47.9828 54.0738V56.0508C47.9828 56.6425 48.4634 57.1235 49.0551 57.1235H51.0322C51.6233 57.1235 52.104 56.6425 52.104 56.0508V54.0738C52.104 53.4822 51.6233 53.002 51.0322 53.002ZM45.4968 61.2871H43.8189V59.6093H45.4968V61.2871ZM45.6466 58.3871H43.6686C43.0783 58.3871 42.5967 58.8677 42.5967 59.4589V61.4369C42.5967 62.0277 43.0783 62.5092 43.6686 62.5092H45.6466C46.2382 62.5092 46.7188 62.0277 46.7188 61.4369V59.4589C46.7189 58.8678 46.2382 58.3871 45.6466 58.3871ZM64.6404 59.801V57.4241L47.3507 40.1353L30.0618 57.424V59.8009H32.7948L46.9189 45.6775C46.9756 45.6208 47.0429 45.5757 47.117 45.545C47.1911 45.5142 47.2706 45.4984 47.3508 45.4984C47.431 45.4984 47.5105 45.5142 47.5846 45.545C47.6587 45.5757 47.726 45.6208 47.7827 45.6775L61.9065 59.8009H64.6404V59.801ZM56.6725 38.5703H58.4256V49.4819L56.6725 47.7279V38.5703ZM53.6876 34.5369H49.9879C49.4942 34.5369 48.2567 34.6252 47.1416 34.9475C47.8233 33.4731 48.7985 32.9178 50.4829 32.9178H59.6009C59.7955 34.0587 60.6438 34.6541 61.4515 34.6541C62.2606 34.6541 63.1089 34.0587 63.3035 32.9178H64.665L64.6693 37.3483H63.3035C63.1089 36.207 62.2606 35.6125 61.4515 35.6125C60.6438 35.6125 59.7955 36.207 59.6009 37.3483H55.1784V36.0278C55.1785 35.2061 54.5099 34.5369 53.6876 34.5369ZM59.6477 50.7039V38.5703H59.9221C60.1432 38.5704 60.3559 38.4856 60.5163 38.3334C60.6767 38.1812 60.7724 37.9732 60.7838 37.7524C60.8473 36.5248 62.058 36.5272 62.1206 37.7524C62.1318 37.9731 62.2274 38.1811 62.3877 38.3334C62.5479 38.4856 62.7605 38.5704 62.9816 38.5703H64.6693C65.3408 38.5703 65.8872 38.0243 65.8872 37.3524V32.9136C65.8872 32.2422 65.3408 31.6957 64.6693 31.6957H62.9816C62.7605 31.6956 62.5479 31.7804 62.3877 31.9326C62.2274 32.0849 62.1318 32.2929 62.1206 32.5136C62.058 33.7394 60.8473 33.7418 60.7838 32.5136C60.7724 32.2928 60.6767 32.0848 60.5163 31.9326C60.3559 31.7804 60.1432 31.6956 59.9221 31.6957H50.483C47.1538 31.6957 46.0964 33.8253 45.501 35.9073C45.3422 36.4613 45.9773 36.9071 46.444 36.5718C47.3091 35.9511 49.3445 35.7589 49.988 35.7589H53.6877C53.759 35.7589 53.8274 35.7872 53.8778 35.8376C53.9282 35.8881 53.9565 35.9564 53.9565 36.0277V37.959C53.9565 38.0393 53.9722 38.1188 54.0029 38.1929C54.0336 38.2671 54.0785 38.3344 54.1353 38.3912C54.192 38.448 54.2593 38.493 54.3334 38.5237C54.4076 38.5544 54.487 38.5703 54.5673 38.5703H55.4506V46.5059L47.7828 38.8391C47.5443 38.6006 47.157 38.6006 46.919 38.8391L29.019 56.739C28.9622 56.7957 28.9172 56.863 28.8864 56.937C28.8557 57.0111 28.8399 57.0905 28.8398 57.1707V60.4122C28.8398 60.4924 28.8556 60.5718 28.8863 60.646C28.917 60.7201 28.962 60.7874 29.0187 60.8441C29.0754 60.9009 29.1427 60.9459 29.2168 60.9765C29.291 61.0072 29.3704 61.023 29.4506 61.023H33.0481C33.2101 61.023 33.3659 60.9586 33.4797 60.8438L47.3506 46.9734L61.2219 60.8438C61.2786 60.9007 61.3459 60.9458 61.4201 60.9766C61.4942 61.0073 61.5737 61.0231 61.654 61.023H65.2511C65.3313 61.023 65.4108 61.0072 65.4849 60.9765C65.559 60.9459 65.6263 60.9009 65.683 60.8441C65.7397 60.7874 65.7847 60.7201 65.8154 60.646C65.8461 60.5718 65.8619 60.4924 65.8619 60.4122V57.1707C65.8619 57.0087 65.7974 56.8539 65.6827 56.739L59.6477 50.7039Z" fill="white"/>
</svg>
