<svg width="64" height="64" viewBox="0 0 64 64" fill="none" xmlns="http://www.w3.org/2000/svg">
<path d="M0 2C0 0.895431 0.895431 0 2 0H62C63.1046 0 64 0.895431 64 2V62C64 63.1046 63.1046 64 62 64H2C0.895431 64 0 63.1046 0 62V2Z" fill="#12679B"/>
<g clip-path="url(#clip0_365_19023)">
<path d="M32.0806 24.7461C32.7413 24.7461 33.2763 24.2108 33.2763 23.5504C33.2763 22.8901 32.7413 22.3547 32.0806 22.3547C26.7981 22.3547 22.5156 26.6372 22.5156 31.9201C22.5156 37.2027 26.7981 41.4852 32.0806 41.4852C37.3636 41.4852 41.6461 37.2027 41.6461 31.9201C41.6461 31.2596 41.1107 30.7245 40.4504 30.7245C39.7902 30.7245 39.2547 31.2596 39.2547 31.9201C39.2547 35.8822 36.0431 39.0942 32.0806 39.0942C28.1187 39.0942 24.9066 35.8822 24.9066 31.9201C24.9066 27.9578 28.1187 24.7461 32.0806 24.7461Z" fill="white"/>
<path d="M54.8936 24.8183C54.6859 24.1909 54.0092 23.8508 53.3815 24.0583C52.7684 24.2612 52.4271 24.9138 52.6099 25.533C56.1855 36.9197 49.8537 49.0488 38.4672 52.6245C27.081 56.2002 14.9517 49.8685 11.3761 38.4819C7.80001 27.0953 14.1322 14.9661 25.5184 11.3904C29.7332 10.0669 34.2524 10.0669 38.4672 11.3904C39.1 11.5812 39.7676 11.223 39.9585 10.5902C40.1463 9.96688 39.8017 9.3081 39.1824 9.10672C26.539 5.13989 13.0734 12.1737 9.1067 24.8175C5.13986 37.4609 12.174 50.9265 24.8175 54.8932C37.4612 58.86 50.9264 51.8262 54.8932 39.1824C56.3601 34.5067 56.3603 29.494 54.8935 24.8183H54.8936Z" fill="white"/>
<path d="M34.357 16.5422C34.3632 15.8614 33.8403 15.2923 33.1613 15.2414C32.8043 15.211 32.4469 15.1807 32.0802 15.1807C22.8353 15.1807 15.3408 22.6751 15.3408 31.9201C15.3408 41.1647 22.8353 48.6592 32.0802 48.6592C41.3249 48.6592 48.8194 41.1647 48.8194 31.9202C48.8194 31.4876 48.793 31.0555 48.7399 30.6263C48.6443 29.9701 48.0349 29.5156 47.3787 29.6112C46.7224 29.7064 46.268 30.3162 46.3632 30.9724C46.3669 30.9973 46.3713 31.0218 46.3763 31.0467C46.4024 31.3364 46.428 31.6234 46.428 31.9194C46.4284 39.8438 40.0047 46.2675 32.0806 46.2682C24.1562 46.2686 17.7325 39.8445 17.7322 31.9204C17.7318 23.9964 24.1551 17.5723 32.0796 17.572H32.0799C32.3766 17.572 32.6639 17.5976 32.9529 17.6232L33.177 17.642C33.8018 17.6687 34.3298 17.1838 34.3563 16.5591C34.3567 16.5532 34.3567 16.5477 34.357 16.5422Z" fill="white"/>
<path d="M39.2544 18.7676V23.0553L31.2351 31.0746C30.7601 31.5334 30.747 32.2904 31.2058 32.7653C31.6647 33.2403 32.4218 33.2535 32.8966 32.7947C32.9065 32.7851 32.9164 32.7753 32.9259 32.7653L40.9453 24.7461H45.2328C45.5499 24.7461 45.8539 24.6201 46.0784 24.3956L53.2521 17.2215C53.719 16.7546 53.719 15.9977 53.2521 15.5307C53.1411 15.4197 53.0094 15.3317 52.8643 15.2716C52.7193 15.2116 52.5639 15.1807 52.4069 15.1807H48.8198V11.5936C48.8198 10.9333 48.2845 10.3979 47.6238 10.3983C47.3069 10.3984 47.003 10.5243 46.779 10.7484L39.6049 17.9225C39.4938 18.0334 39.4056 18.1651 39.3455 18.3102C39.2854 18.4552 39.2544 18.6106 39.2544 18.7676ZM41.6458 19.2628L46.4285 14.4801V16.3764C46.4285 17.0366 46.9639 17.5721 47.6241 17.5721H49.5204L44.7377 22.3547H41.6458V19.2628Z" fill="white"/>
</g>
<defs>
<clipPath id="clip0_365_19023">
<rect width="48" height="48" fill="white" transform="translate(8 8)"/>
</clipPath>
</defs>
</svg>
