<svg width="64" height="64" viewBox="0 0 64 64" fill="none" xmlns="http://www.w3.org/2000/svg">
<path d="M0 2C0 0.895431 0.895431 0 2 0H62C63.1046 0 64 0.895431 64 2V62C64 63.1046 63.1046 64 62 64H2C0.895431 64 0 63.1046 0 62V2Z" fill="#12679B"/>
<path d="M41.3694 29.4536C41.3694 26.8789 40.2923 24.3896 38.415 22.6256C36.5113 20.8361 34.0158 19.9381 31.4032 20.1032C26.6704 20.3969 22.8208 24.3416 22.6384 29.083C22.5404 31.6117 23.4371 34.0184 25.1632 35.8597C26.451 37.2339 27.0697 38.0485 27.232 39.4808C26.2048 39.7385 25.4382 40.6625 25.4382 41.7685C25.4382 42.8465 26.1678 43.7485 27.1556 44.0326C26.8129 44.443 26.5979 44.9638 26.5979 45.5393C26.5979 46.6673 27.3932 47.6105 28.4516 47.8453C28.5582 49.7125 30.1062 51.2 31.9998 51.2C33.8934 51.2 35.4414 49.7125 35.548 47.8453C36.6064 47.6101 37.4017 46.6673 37.4017 45.5393C37.4017 44.9638 37.1867 44.443 36.844 44.0321C37.8318 43.7485 38.5614 42.8465 38.5614 41.7685C38.5614 40.6625 37.7953 39.7385 36.7681 39.4808C36.9323 38.06 37.5577 37.2344 38.86 35.8347C40.4755 34.103 41.3726 31.8219 41.3694 29.4536ZM31.9998 50.24C30.6558 50.24 29.547 49.2142 29.415 47.9048H34.5846C34.5186 48.5447 34.2179 49.1375 33.7406 49.5687C33.2633 50 32.6431 50.2391 31.9998 50.24ZM35.0358 46.9448H28.9638C28.1886 46.9448 27.5579 46.3141 27.5579 45.5393C27.5579 44.7646 28.1886 44.1339 28.9638 44.1339H35.0358C35.811 44.1339 36.4417 44.7646 36.4417 45.5393C36.4417 46.3141 35.811 46.9448 35.0358 46.9448ZM37.6014 41.768C37.601 42.1406 37.4528 42.4979 37.1893 42.7614C36.9258 43.0248 36.5686 43.173 36.196 43.1734H27.8036C27.431 43.173 27.0738 43.0248 26.8103 42.7614C26.5468 42.4979 26.3986 42.1406 26.3982 41.768C26.3986 41.3954 26.5468 41.0381 26.8103 40.7746C27.0738 40.5111 27.431 40.3629 27.8036 40.3625H36.196C36.5686 40.3629 36.9258 40.5111 37.1893 40.7746C37.4528 41.0381 37.601 41.3954 37.6014 41.768ZM29.9334 32.1958H28.4574C27.6433 32.1958 26.9809 31.5334 26.9809 30.7193C26.9809 29.9053 27.6433 29.2429 28.4574 29.2429C29.2715 29.2429 29.9339 29.9053 29.9339 30.7193L29.9334 32.1958ZM30.8934 39.403V33.1558H33.1062V39.403H30.8934ZM35.8134 39.403H34.0662V33.1558H35.5427C36.8862 33.1558 37.9792 32.0629 37.9792 30.7193C37.9792 29.3758 36.8862 28.2829 35.5427 28.2829C34.1992 28.2829 33.1062 29.3758 33.1062 30.7193V32.1958H30.8934V30.7193C30.8934 29.3758 29.8004 28.2829 28.4569 28.2829C27.1134 28.2829 26.0204 29.3758 26.0204 30.7193C26.0204 32.0629 27.1134 33.1558 28.4569 33.1558H29.9334V39.403H28.1862C27.9884 37.6102 27.1662 36.5936 25.863 35.203C24.314 33.5504 23.5096 31.3899 23.5974 29.12C23.7606 24.8648 27.2156 21.3248 31.4622 21.0608C33.8147 20.9158 36.0496 21.7193 37.7579 23.3254C39.4676 24.932 40.4094 27.1088 40.4094 29.4536C40.4094 31.5867 39.6097 33.6205 38.1568 35.1809C36.8425 36.5936 36.0131 37.6237 35.8134 39.403ZM34.0662 32.1958V30.7193C34.0662 29.9053 34.7286 29.2429 35.5427 29.2429C36.3568 29.2429 37.0192 29.9053 37.0192 30.7193C37.0192 31.5334 36.3568 32.1958 35.5427 32.1958H34.0662ZM31.5198 13.28V17.5635C31.5198 17.6908 31.5704 17.8129 31.6604 17.9029C31.7504 17.9929 31.8725 18.0435 31.9998 18.0435C32.1271 18.0435 32.2492 17.9929 32.3392 17.9029C32.4292 17.8129 32.4798 17.6908 32.4798 17.5635V13.28C32.4798 13.1527 32.4292 13.0306 32.3392 12.9406C32.2492 12.8506 32.1271 12.8 31.9998 12.8C31.8725 12.8 31.7504 12.8506 31.6604 12.9406C31.5704 13.0306 31.5198 13.1527 31.5198 13.28ZM24.782 19.9774C24.8663 19.9773 24.949 19.9551 25.0219 19.9129C25.0948 19.8708 25.1553 19.8102 25.1974 19.7372C25.2394 19.6643 25.2616 19.5815 25.2616 19.4973C25.2615 19.4131 25.2394 19.3304 25.1972 19.2574L23.0555 15.548C23.0242 15.493 22.9823 15.4447 22.9323 15.4059C22.8823 15.3671 22.8251 15.3386 22.764 15.322C22.7029 15.3054 22.6391 15.3011 22.5763 15.3092C22.5136 15.3174 22.453 15.3379 22.3982 15.3695C22.3434 15.4012 22.2954 15.4434 22.2569 15.4937C22.2185 15.5439 22.1903 15.6013 22.1742 15.6625C22.158 15.7237 22.1541 15.7875 22.1626 15.8503C22.1712 15.913 22.1921 15.9734 22.2241 16.028L24.3659 19.7374C24.4081 19.8105 24.4687 19.8711 24.5418 19.9132C24.6148 19.9554 24.6977 19.9775 24.782 19.9774ZM19.7372 24.3661L16.0278 22.2243C15.9732 22.1923 15.9128 22.1714 15.8501 22.1628C15.7874 22.1542 15.7236 22.1582 15.6624 22.1743C15.6012 22.1905 15.5438 22.2186 15.4935 22.2571C15.4432 22.2956 15.401 22.3436 15.3694 22.3984C15.3377 22.4532 15.3172 22.5138 15.3091 22.5765C15.3009 22.6393 15.3052 22.7031 15.3218 22.7642C15.3384 22.8252 15.3669 22.8825 15.4057 22.9325C15.4445 22.9825 15.4928 23.0244 15.5478 23.0557L19.2572 25.1974C19.367 25.2544 19.4945 25.2668 19.6133 25.2321C19.732 25.1974 19.8327 25.1182 19.8946 25.0111C19.9564 24.904 19.9745 24.7772 19.9452 24.6571C19.9159 24.5369 19.8414 24.4327 19.7372 24.3661ZM13.2798 32.48H17.5633C17.6906 32.48 17.8127 32.4294 17.9027 32.3394C17.9928 32.2494 18.0433 32.1273 18.0433 32C18.0433 31.8727 17.9928 31.7506 17.9027 31.6606C17.8127 31.5706 17.6906 31.52 17.5633 31.52H13.2798C13.1525 31.52 13.0304 31.5706 12.9404 31.6606C12.8504 31.7506 12.7998 31.8727 12.7998 32C12.7998 32.1273 12.8504 32.2494 12.9404 32.3394C13.0304 32.4294 13.1525 32.48 13.2798 32.48ZM15.7883 41.84C15.8699 41.84 15.952 41.8193 16.0278 41.7757L19.7372 39.6339C19.7923 39.6026 19.8406 39.5608 19.8794 39.5107C19.9181 39.4607 19.9466 39.4035 19.9632 39.3424C19.9798 39.2813 19.9842 39.2175 19.976 39.1548C19.9678 39.092 19.9473 39.0315 19.9157 38.9766C19.884 38.9218 19.8419 38.8738 19.7916 38.8353C19.7413 38.7969 19.6839 38.7688 19.6227 38.7526C19.5615 38.7364 19.4977 38.7325 19.435 38.7411C19.3723 38.7496 19.3119 38.7705 19.2572 38.8025L15.5478 40.9443C15.4563 40.9971 15.3848 41.0787 15.3444 41.1763C15.3039 41.2739 15.2968 41.3822 15.3242 41.4842C15.3515 41.5863 15.4118 41.6765 15.4956 41.7408C15.5794 41.8051 15.6826 41.84 15.7883 41.84ZM44.2624 39.6339L47.9718 41.7757C48.0816 41.8326 48.2091 41.845 48.3278 41.8103C48.4465 41.7756 48.5473 41.6965 48.6091 41.5894C48.6709 41.4823 48.6891 41.3554 48.6598 41.2353C48.6305 41.1151 48.556 41.0109 48.4518 40.9443L44.7424 38.8025C44.6877 38.7705 44.6273 38.7496 44.5646 38.7411C44.5019 38.7325 44.4381 38.7364 44.3769 38.7526C44.3157 38.7688 44.2583 38.7969 44.208 38.8353C44.1578 38.8738 44.1156 38.9218 44.0839 38.9766C44.0523 39.0315 44.0318 39.092 44.0236 39.1548C44.0154 39.2175 44.0198 39.2813 44.0364 39.3424C44.053 39.4035 44.0815 39.4607 44.1202 39.5107C44.159 39.5608 44.2073 39.6026 44.2624 39.6339ZM50.7198 31.52H46.4363C46.309 31.52 46.1869 31.5706 46.0969 31.6606C46.0069 31.7506 45.9563 31.8727 45.9563 32C45.9563 32.1273 46.0069 32.2494 46.0969 32.3394C46.1869 32.4294 46.309 32.48 46.4363 32.48H50.7198C50.8471 32.48 50.9692 32.4294 51.0592 32.3394C51.1492 32.2494 51.1998 32.1273 51.1998 32C51.1998 31.8727 51.1492 31.7506 51.0592 31.6606C50.9692 31.5706 50.8471 31.52 50.7198 31.52ZM44.0862 25.0217C44.1177 25.0764 44.1597 25.1243 44.2098 25.1627C44.2598 25.2011 44.3169 25.2293 44.3779 25.2456C44.4388 25.2619 44.5024 25.2661 44.5649 25.2578C44.6275 25.2495 44.6878 25.229 44.7424 25.1974L48.4518 23.0557C48.5068 23.0244 48.5551 22.9825 48.5939 22.9325C48.6327 22.8825 48.6612 22.8252 48.6778 22.7642C48.6944 22.7031 48.6987 22.6393 48.6906 22.5765C48.6824 22.5138 48.6619 22.4532 48.6302 22.3984C48.5986 22.3436 48.5564 22.2956 48.5061 22.2571C48.4558 22.2186 48.3984 22.1905 48.3372 22.1743C48.276 22.1582 48.2122 22.1542 48.1495 22.1628C48.0868 22.1714 48.0264 22.1923 47.9718 22.2243L44.2624 24.3661C44.1521 24.4297 44.0717 24.5346 44.0387 24.6575C44.0058 24.7805 44.0226 24.9115 44.0862 25.0217ZM41.5998 15.3718C41.4895 15.3083 41.3585 15.2912 41.2355 15.3243C41.1126 15.3573 41.0078 15.4378 40.9441 15.548L38.8024 19.2574C38.7703 19.312 38.7495 19.3724 38.7409 19.4352C38.7323 19.4979 38.7362 19.5617 38.7524 19.6229C38.7686 19.6841 38.7967 19.7415 38.8352 19.7918C38.8736 19.842 38.9216 19.8842 38.9764 19.9159C39.0313 19.9475 39.0918 19.968 39.1546 19.9762C39.2174 19.9843 39.2811 19.98 39.3422 19.9634C39.4033 19.9468 39.4605 19.9183 39.5105 19.8795C39.5606 19.8408 39.6024 19.7925 39.6337 19.7374L41.7755 16.028C41.8071 15.9734 41.8276 15.9131 41.8359 15.8505C41.8441 15.788 41.84 15.7244 41.8237 15.6635C41.8073 15.6025 41.7792 15.5454 41.7408 15.4954C41.7024 15.4453 41.6545 15.4033 41.5998 15.3718Z" fill="white"/>
</svg>
