<svg width="48" height="48" viewBox="0 0 48 48" fill="none" xmlns="http://www.w3.org/2000/svg">
<rect width="48" height="48" rx="2" fill="#12679B"/>
<path fill-rule="evenodd" clip-rule="evenodd" d="M35.2883 26.1701C35.0594 25.6792 34.7493 25.2708 34.3809 24.98C34.7493 24.6888 35.0594 24.2798 35.2883 23.7895C35.5176 24.2804 35.828 24.6888 36.1964 24.98C35.828 25.2708 35.5176 25.6792 35.2883 26.1701ZM37.1603 24.5926C36.4081 24.3478 35.8184 23.3888 35.6936 22.2058C35.643 21.7244 34.9344 21.7238 34.8833 22.2058C34.7582 23.3882 34.1685 24.3478 33.4163 24.5926C33.043 24.7136 33.0429 25.2451 33.4163 25.3669C34.1685 25.612 34.7582 26.5711 34.8833 27.7537C34.9344 28.236 35.643 28.2355 35.6936 27.7537C35.8184 26.571 36.4081 25.612 37.1603 25.3669C37.5347 25.2447 37.5328 24.7128 37.1603 24.5926ZM14.8894 18.8826C15.1984 19.6332 15.654 20.2454 16.2074 20.6438C15.654 21.043 15.1984 21.6552 14.8894 22.4054C14.5806 21.6552 14.1242 21.043 13.5708 20.6438C14.1242 20.2454 14.5806 19.6332 14.8894 18.8826ZM12.5642 21.0312C13.5509 21.3528 14.3224 22.5968 14.4844 24.1276C14.5352 24.6094 15.2432 24.6096 15.2942 24.1276C15.4565 22.5968 16.2283 21.3528 17.2144 21.0312C17.5876 20.9097 17.5879 20.3788 17.2144 20.2569C16.2283 19.9352 15.4565 18.691 15.2942 17.1605C15.2835 17.0606 15.2363 16.9681 15.1616 16.9008C15.0869 16.8336 14.9899 16.7963 14.8894 16.7962C14.7889 16.7963 14.6919 16.8335 14.6171 16.9008C14.5423 16.968 14.4951 17.0605 14.4844 17.1605C14.3221 18.691 13.5503 19.9353 12.5642 20.2569C12.1896 20.3791 12.191 20.9103 12.5642 21.0312ZM20.2648 13.6053C20.494 14.0961 20.8045 14.5046 21.1728 14.7957C20.8045 15.0866 20.494 15.495 20.2648 15.9859C20.0355 15.495 19.7257 15.0865 19.3574 14.7957C19.7256 14.5046 20.0355 14.0955 20.2648 13.6053ZM18.3927 15.1827C19.1449 15.4278 19.7347 16.3869 19.8597 17.5695C19.9109 18.0517 20.6193 18.0513 20.67 17.5695C20.7954 16.3869 21.3846 15.4278 22.1367 15.1827C22.5102 15.0609 22.51 14.5295 22.1367 14.4085C21.3845 14.1633 20.7954 13.204 20.67 12.0216C20.6193 11.5402 19.9108 11.5398 19.8597 12.0216C19.7347 13.204 19.1449 14.1633 18.3927 14.4085C18.0195 14.5295 18.0193 15.0607 18.3927 15.1827ZM25.2547 35.5247H24.1364V34.4061H25.2547V35.5247ZM25.3545 33.5913H24.0365C23.6421 33.5913 23.3216 33.9117 23.3216 34.3059V35.6245C23.3216 36.0184 23.642 36.3394 24.0365 36.3394H25.3545C25.7486 36.3394 26.0691 36.0184 26.0691 35.6245V34.3059C26.0691 33.9118 25.7486 33.5913 25.3545 33.5913ZM21.6643 31.9343H20.5457V30.8157H21.6643V31.9343ZM21.7641 30.0012H20.4455C20.0519 30.0012 19.7309 30.3213 19.7309 30.7158V32.0338C19.7309 32.4282 20.0519 32.7489 20.4455 32.7489H21.7641C22.1585 32.7489 22.4789 32.4282 22.4789 32.0338V30.7158C22.479 30.3214 22.1585 30.0012 21.7641 30.0012ZM25.2547 31.9343H24.1364V30.8157H25.2547V31.9343ZM25.3545 30.0012H24.0365C23.6421 30.0012 23.3216 30.3213 23.3216 30.7158V32.0338C23.3216 32.4282 23.642 32.7489 24.0365 32.7489H25.3545C25.7486 32.7489 26.0691 32.4282 26.0691 32.0338V30.7158C26.0691 30.3214 25.7486 30.0012 25.3545 30.0012ZM21.6643 35.5247H20.5457V34.4061H21.6643V35.5247ZM21.7641 33.5913H20.4455C20.0519 33.5913 19.7309 33.9117 19.7309 34.3059V35.6245C19.7309 36.0184 20.0519 36.3394 20.4455 36.3394H21.7641C22.1585 36.3394 22.4789 36.0184 22.4789 35.6245V34.3059C22.479 33.9118 22.1585 33.5913 21.7641 33.5913ZM34.4266 34.5339V32.9493L22.9002 21.4234L11.3743 32.9493V34.5338H13.1962L22.6124 25.1183C22.6502 25.0804 22.695 25.0504 22.7444 25.0299C22.7938 25.0094 22.8468 24.9989 22.9003 24.9989C22.9538 24.9989 23.0067 25.0094 23.0561 25.0299C23.1055 25.0504 23.1504 25.0804 23.1882 25.1183L32.604 34.5338H34.4266V34.5339ZM29.1148 20.3801H30.2835V27.6545L29.1148 26.4852V20.3801ZM27.1248 17.6912H24.6583C24.3292 17.6912 23.5042 17.75 22.7608 17.9649C23.2152 16.982 23.8654 16.6118 24.9884 16.6118H31.067C31.1968 17.3724 31.7623 17.7693 32.3008 17.7693C32.8401 17.7693 33.4056 17.3724 33.5354 16.6118H34.4431L34.4459 19.5654H33.5354C33.4056 18.8046 32.8401 18.4083 32.3008 18.4083C31.7623 18.4083 31.1968 18.8046 31.067 19.5654H28.1187V18.6851C28.1187 18.1373 27.673 17.6912 27.1248 17.6912ZM31.0982 28.4692V20.3801H31.2811C31.4285 20.3802 31.5703 20.3237 31.6773 20.2222C31.7842 20.1207 31.848 19.982 31.8556 19.8348C31.8979 19.0165 32.705 19.0181 32.7468 19.8348C32.7543 19.982 32.818 20.1207 32.9249 20.2222C33.0317 20.3236 33.1734 20.3802 33.3208 20.3801H34.446C34.8936 20.3801 35.2579 20.0161 35.2579 19.5682V16.609C35.2579 16.1614 34.8936 15.7971 34.446 15.7971H33.3208C33.1734 15.797 33.0317 15.8535 32.9249 15.955C32.818 16.0565 32.7543 16.1952 32.7468 16.3423C32.705 17.1595 31.8979 17.1611 31.8556 16.3423C31.848 16.1951 31.7842 16.0565 31.6773 15.955C31.5703 15.8535 31.4285 15.797 31.2811 15.7971H24.9884C22.7689 15.7971 22.064 17.2168 21.6671 18.6048C21.5612 18.9741 21.9846 19.2713 22.2958 19.0478C22.8725 18.634 24.2294 18.5059 24.6584 18.5059H27.1249C27.1724 18.5059 27.218 18.5247 27.2516 18.5584C27.2852 18.592 27.3041 18.6375 27.3041 18.6851V19.9726C27.304 20.0261 27.3146 20.0791 27.335 20.1285C27.3554 20.178 27.3854 20.2229 27.4232 20.2607C27.4611 20.2986 27.506 20.3286 27.5554 20.3491C27.6048 20.3695 27.6578 20.3801 27.7112 20.3801H28.3001V25.6705L23.1882 20.5593C23.0293 20.4003 22.7711 20.4003 22.6124 20.5593L10.6791 32.4926C10.6412 32.5304 10.6112 32.5752 10.5907 32.6246C10.5702 32.674 10.5596 32.7269 10.5596 32.7804V34.9414C10.5596 34.9949 10.5701 35.0478 10.5906 35.0972C10.6111 35.1466 10.6411 35.1915 10.6789 35.2293C10.7167 35.2672 10.7616 35.2972 10.811 35.3176C10.8604 35.3381 10.9133 35.3486 10.9668 35.3486H13.3651C13.4731 35.3486 13.577 35.3057 13.6529 35.2291L22.9001 25.9822L32.1477 35.2291C32.1854 35.267 32.2303 35.2971 32.2798 35.3176C32.3292 35.3381 32.3822 35.3487 32.4357 35.3486H34.8338C34.8873 35.3486 34.9402 35.3381 34.9896 35.3176C35.039 35.2972 35.0839 35.2672 35.1217 35.2293C35.1596 35.1915 35.1895 35.1466 35.21 35.0972C35.2305 35.0478 35.241 34.9949 35.241 34.9414V32.7804C35.241 32.6724 35.198 32.5692 35.1216 32.4926L31.0982 28.4692Z" fill="white"/>
</svg>
