<svg width="48" height="48" viewBox="0 0 48 48" fill="none" xmlns="http://www.w3.org/2000/svg">
<rect width="48" height="48" rx="4" fill="#C0E3F7"/>
<path d="M30.25 34.8125C29.905 34.8125 29.625 35.0925 29.625 35.4375C29.625 35.7825 29.905 36.0625 30.25 36.0625C30.595 36.0625 30.875 35.7825 30.875 35.4375C30.875 35.0925 30.595 34.8125 30.25 34.8125ZM17.75 34.8125C17.405 34.8125 17.125 35.0925 17.125 35.4375C17.125 35.7825 17.405 36.0625 17.75 36.0625C18.095 36.0625 18.375 35.7825 18.375 35.4375C18.375 35.0925 18.095 34.8125 17.75 34.8125Z" fill="#0E2D43"/>
<path d="M35.9778 31.5756C35.2743 30.4866 34.3074 29.6213 33.1749 29.0625C33.0772 28.9713 32.9528 28.9141 32.82 28.8992C32.0008 28.5514 31.1373 28.375 30.25 28.375H28.375V26.7261C29.4585 25.7962 30.2396 24.5641 30.6184 23.1875H30.875C32.2535 23.1875 33.375 22.066 33.375 20.6875C33.375 20.0343 33.1229 19.439 32.7111 18.9931C32.7507 18.9597 32.7889 18.9247 32.8257 18.8882C33.1799 18.5339 33.375 18.0631 33.375 17.5625C33.375 16.7398 32.8421 16.0396 32.1036 15.7877C31.8828 12.9137 29.8657 10.4577 27.0885 9.688C26.9239 8.8285 26.2146 8 25.25 8H22.75C21.7854 8 21.0761 8.8285 20.9115 9.688C18.1346 10.4577 16.1177 12.9132 15.8965 15.7869C15.6244 15.8793 15.3772 16.0333 15.1743 16.2368C14.8201 16.5911 14.625 17.0619 14.625 17.5625C14.625 18.1352 14.8834 18.6484 15.2894 18.9926C14.8774 19.4385 14.625 20.034 14.625 20.6875C14.625 22.066 15.7465 23.1875 17.125 23.1875H17.3799C17.6956 24.3348 18.2943 25.3881 19.1295 26.2582C19.2871 26.4219 19.4524 26.5778 19.625 26.7256V28.375H17.75C16.8626 28.375 15.9991 28.5514 15.18 28.8991C15.0473 28.914 14.9228 28.9713 14.8252 29.0624C13.6925 29.6213 12.7258 30.4866 12.0222 31.5756C11.2717 32.7373 10.875 34.0727 10.875 35.4375V39.375C10.875 39.7201 11.1548 40 11.5 40H36.5C36.8452 40 37.125 39.7201 37.125 39.375V35.4375C37.125 34.0727 36.7283 32.7372 35.9778 31.5756ZM14.625 38.75H12.125V35.4375C12.125 33.5364 13.0989 31.7143 14.625 30.6326V38.75ZM30.875 21.9375H30.8465C30.8651 21.7296 30.875 21.5209 30.875 21.3125V19.4375C31.5643 19.4375 32.125 19.9983 32.125 20.6875C32.125 21.3767 31.5643 21.9375 30.875 21.9375ZM20.875 11.0087V13.8125C20.875 14.1577 21.1548 14.4375 21.5 14.4375C21.8452 14.4375 22.125 14.1577 22.125 13.8125V10.0625C22.125 9.67525 22.4521 9.25 22.75 9.25H25.25C25.5479 9.25 25.875 9.67525 25.875 10.0625V13.8125C25.875 14.1577 26.1548 14.4375 26.5 14.4375C26.8452 14.4375 27.125 14.1577 27.125 13.8125V11.0087C29.1431 11.7229 30.6 13.5491 30.8401 15.6875H17.1599C17.4 13.5491 18.8569 11.7229 20.875 11.0087ZM17.125 21.9375C16.4358 21.9375 15.875 21.3767 15.875 20.6875C15.875 19.9983 16.4358 19.4375 17.125 19.4375V21.3125C17.125 21.5209 17.1349 21.7296 17.1535 21.9375H17.125ZM17.125 18.1875H16.5C16.1554 18.1875 15.875 17.9071 15.875 17.5625C15.8748 17.4804 15.8909 17.3991 15.9223 17.3233C15.9538 17.2474 16 17.1786 16.0582 17.1208C16.1161 17.0625 16.1849 17.0163 16.2607 16.9849C16.3366 16.9534 16.4179 16.9373 16.5 16.9375H31.5C31.8446 16.9375 32.125 17.2179 32.125 17.5625C32.1252 17.6446 32.1091 17.7259 32.0777 17.8017C32.0462 17.8776 32 17.9464 31.9418 18.0042C31.884 18.0625 31.8151 18.1087 31.7393 18.1401C31.6634 18.1716 31.5821 18.1877 31.5 18.1875H17.125ZM18.4886 22.4489C18.4873 22.4421 18.4861 22.4354 18.4846 22.4287C18.4119 22.0611 18.3752 21.6872 18.375 21.3125V19.4375H29.625V21.3125C29.625 21.6861 29.5879 22.0613 29.5154 22.4284C29.5139 22.4352 29.5127 22.442 29.5114 22.4488C29.2315 23.8442 28.4584 25.092 27.3335 25.9639C26.3556 26.7235 25.2029 27.125 24 27.125C22.7971 27.125 21.6444 26.7235 20.6656 25.9632C20.4405 25.7889 20.2285 25.5983 20.0315 25.3928C19.2431 24.5714 18.7098 23.5539 18.4886 22.4489ZM23.375 38.75H18.375V37.3125C18.375 36.9673 18.0952 36.6875 17.75 36.6875C17.4048 36.6875 17.125 36.9673 17.125 37.3125V38.75H15.875V29.9671C16.2777 29.8149 16.6975 29.7125 17.125 29.662V33.5625C17.125 33.9077 17.4048 34.1875 17.75 34.1875C18.0952 34.1875 18.375 33.9077 18.375 33.5625V29.625H19.9822L23.375 33.1875V38.75ZM20.875 28.75V27.5859C21.8394 28.1043 22.9017 28.375 24 28.375C25.0984 28.375 26.1607 28.1042 27.125 27.5859V28.75L24 32.0312L20.875 28.75ZM32.125 38.75H30.875V37.3125C30.875 36.9673 30.5952 36.6875 30.25 36.6875C29.9048 36.6875 29.625 36.9673 29.625 37.3125V38.75H24.625V33.1875L28.0178 29.625H29.625V33.5625C29.625 33.9077 29.9048 34.1875 30.25 34.1875C30.5952 34.1875 30.875 33.9077 30.875 33.5625V29.662C31.3025 29.7125 31.7223 29.815 32.125 29.9672V38.75ZM35.875 38.75H33.375V30.6326C34.9011 31.7143 35.875 33.5364 35.875 35.4375V38.75Z" fill="#0E2D43"/>
</svg>
