<svg width="48" height="48" viewBox="0 0 48 48" fill="none" xmlns="http://www.w3.org/2000/svg">
<rect width="48" height="48" rx="4" fill="#C0E3F7"/>
<path d="M30.875 32.75C30.53 32.75 30.25 33.03 30.25 33.375C30.25 33.72 30.53 34 30.875 34C31.22 34 31.5 33.72 31.5 33.375C31.5 33.03 31.22 32.75 30.875 32.75Z" fill="#0E2D43"/>
<path d="M32.4139 30.7289L29.4433 29.7389L28.3768 27.606C29.3376 26.6281 30.0046 25.3342 30.2296 23.9847L30.3626 23.1875H31.5C32.5339 23.1875 33.375 22.3464 33.375 21.3125V17.375C33.375 12.2056 29.1694 8 24 8C18.8174 8 14.625 12.1936 14.625 17.375V21.3125C14.625 22.1272 15.1476 22.822 15.875 23.08V23.8125C15.875 24.8464 16.7161 25.6875 17.75 25.6875H18.2989C18.569 26.2759 18.9221 26.8226 19.3472 27.3109C19.4359 27.4125 19.5278 27.5113 19.6226 27.6072L18.5568 29.7389L15.5861 30.729C12.132 31.8808 9.625 35.5169 9.625 39.375C9.625 39.7202 9.90481 40 10.25 40H37.75C38.0951 40 38.375 39.7202 38.375 39.375C38.375 35.5169 35.8681 31.8807 32.4139 30.7289ZM32.125 21.3125C32.125 21.6571 31.8446 21.9375 31.5 21.9375H30.5461C30.705 20.7069 30.8109 19.3973 30.8534 18.1075C30.8547 18.0711 30.8557 18.0358 30.8568 18H32.125V21.3125ZM16.5 21.9375C16.1554 21.9375 15.875 21.6571 15.875 21.3125V18H17.1436C17.1457 18.0652 17.1479 18.1307 17.1503 18.1966L17.1506 18.2033V18.2039C17.1943 19.4584 17.2988 20.7339 17.4541 21.9374H16.5V21.9375ZM17.75 24.4375C17.4054 24.4375 17.125 24.1571 17.125 23.8125V23.1875H17.6374L17.7704 23.9849C17.796 24.1368 17.8269 24.2878 17.863 24.4375H17.75ZM17.1261 16.75H15.8987C16.2153 12.5612 19.7111 9.25 24 9.25C28.2699 9.25 31.781 12.5608 32.1012 16.75H30.874C30.829 13.2983 28.0182 10.5 24.5594 10.5H23.4407C19.982 10.5 17.171 13.2983 17.1261 16.75ZM23.4406 11.75H24.5594C27.3599 11.75 29.6266 14.0407 29.625 16.8381C29.625 17.0348 29.6234 17.2061 29.6201 17.3619L29.6201 17.368L28.8383 17.2563C26.7146 16.9531 24.7093 15.9504 23.1919 14.4331C23.0747 14.3159 22.9158 14.25 22.75 14.25C21.0715 14.25 19.4648 15.0148 18.4026 16.3068C18.6644 13.7618 20.8158 11.75 23.4406 11.75ZM19.1587 24.4375C18.8459 23.3967 18.4879 20.3342 18.4087 18.3717L19.2499 17.2501C20.0225 16.2203 21.2244 15.5805 22.503 15.5071C24.1853 17.1081 26.3617 18.1653 28.6616 18.4937L29.5817 18.6252C29.5202 19.9305 29.3945 21.2404 29.2144 22.4451L29.2143 22.4463C29.157 22.8336 29.1119 23.0829 28.9966 23.7791C28.6656 25.7644 27.1842 27.5597 25.2287 28.0486C24.422 28.2495 23.5783 28.2495 22.7716 28.0486C21.5506 27.7434 20.4309 26.8985 19.7084 25.6875H20.9825C21.2405 26.4149 21.9352 26.9375 22.75 26.9375H24C25.0359 26.9375 25.875 26.0985 25.875 25.0625C25.875 24.0286 25.0339 23.1875 24 23.1875H22.75C21.9171 23.1875 21.2326 23.7255 20.9814 24.4375H19.1587ZM22.6974 29.3135C23.1257 29.404 23.5623 29.4497 24 29.45C24.3419 29.45 24.6839 29.4214 25.0221 29.3659L23.9177 30.5338L22.6974 29.3135ZM23.0584 31.4424L21.0761 33.5388C20.5299 32.4934 20.0622 31.4088 19.6768 30.294L20.4212 28.8051L23.0584 31.4424ZM27.4729 28.5934L28.3231 30.2939C27.9377 31.4091 27.4699 32.494 26.9236 33.5397L24.8019 31.418L27.4729 28.5934ZM22.125 25.0625C22.125 24.7174 22.4049 24.4375 22.75 24.4375H24C24.3446 24.4375 24.625 24.7179 24.625 25.0625C24.625 25.4076 24.3451 25.6875 24 25.6875H22.75C22.4054 25.6875 22.125 25.4071 22.125 25.0625ZM10.9 38.75C11.1477 35.6538 13.2083 32.8396 15.9814 31.9148L18.6123 31.0381C19.0949 32.3724 19.69 33.6633 20.3912 34.8968L20.3947 34.9031L20.3947 34.9032C20.9101 35.8088 21.4815 36.6813 22.1055 37.5157L22.8744 38.75H10.9ZM24 38.1929L23.1524 36.8321C23.1429 36.8168 23.1327 36.802 23.122 36.7876C22.6156 36.1118 22.1456 35.4095 21.7137 34.6838L23.9427 32.3266L26.2913 34.6752C25.8582 35.404 25.3865 36.1091 24.8781 36.7875C24.8475 36.8283 24.8909 36.764 24 38.1929ZM25.1256 38.75L25.8944 37.5158C26.5233 36.675 27.0987 35.7955 27.6172 34.8825C27.6203 34.877 27.6233 34.8714 27.6264 34.8659L27.6275 34.8639C28.3207 33.6403 28.9095 32.3605 29.3878 31.0381L32.0186 31.9148C34.7917 32.8396 36.8523 35.6538 37.1 38.75H25.1256Z" fill="#0E2D43"/>
<path d="M35.2216 36.2207C34.8039 35.3846 34.1921 34.6418 33.4523 34.0727C33.1787 33.8622 32.7863 33.9133 32.5758 34.187C32.3653 34.4606 32.4165 34.853 32.6901 35.0635C33.281 35.518 33.7696 36.1113 34.1033 36.7793C34.2578 37.0886 34.6335 37.2131 34.9417 37.0591C35.2505 36.9048 35.3758 36.5295 35.2216 36.2207Z" fill="#0E2D43"/>
</svg>
