<svg width="48" height="48" viewBox="0 0 48 48" fill="none" xmlns="http://www.w3.org/2000/svg">
<rect width="48" height="48" rx="4" fill="#C0E3F7"/>
<path d="M39.9932 17.8379C39.993 17.2908 39.7778 16.8082 39.3709 16.4426L34.5069 12.0703C33.9019 11.5266 33.1391 10.9709 32.0666 10.9709H32.0655C30.9923 10.9713 30.2294 11.5278 29.6248 12.0721L24.7639 16.4476C24.3572 16.8136 24.1424 17.2964 24.1426 17.8436L24.1448 23.4592H20.9166C21.5009 22.2459 21.9078 20.3293 21.4508 18.8941C21.1292 17.884 20.4209 17.2181 19.4025 16.9684C19.3382 16.9526 19.2713 16.9498 19.2059 16.9601C19.1404 16.9704 19.0777 16.9935 19.0213 17.0283C18.9648 17.063 18.9159 17.1086 18.8773 17.1624C18.8386 17.2162 18.8111 17.2772 18.7962 17.3418C18.7408 17.5826 18.6894 17.8083 18.6412 18.0205C18.0407 20.6651 17.9635 21.005 16.3047 22.0892C15.1328 22.8551 15.0496 22.954 14.3208 24.0173C14.2382 24.1379 14.1554 24.2584 14.0723 24.3786C13.7772 24.8055 13.3996 24.998 12.8509 25.0028L12.8086 25.0029V24.8832C12.8086 24.2604 12.302 23.7538 11.6792 23.7538H9.12937C8.50662 23.7538 8 24.2604 8 24.8832V35.8996C8 36.5224 8.50662 37.0291 9.12937 37.0291H11.6793C12.302 37.0291 12.8087 36.5224 12.8087 35.8996V35.3871C13.0341 35.4658 13.2594 35.5496 13.4914 35.6363C14.6273 36.0605 15.9147 36.5414 17.8263 36.5414H24.4636C24.7465 36.5414 25.0157 36.4823 25.2602 36.3764C25.5002 36.4843 25.7602 36.5414 26.0268 36.5414L38.1234 36.5372C39.1586 36.5368 40.0004 35.6943 39.9999 34.6592L39.9932 17.8379ZM11.8087 35.8996C11.8087 35.9698 11.7494 36.0291 11.6793 36.0291H9.12937C9.05925 36.0291 9 35.9698 9 35.8996V24.8832C9 24.8131 9.05925 24.7538 9.12937 24.7538H11.6793C11.7494 24.7538 11.8087 24.8131 11.8087 24.8832V35.8996ZM17.8263 35.5414C16.0954 35.5414 14.9495 35.1133 13.8413 34.6994C13.5068 34.5745 13.1637 34.4464 12.8088 34.332V26.0029L12.8569 26.0028C13.7304 25.9952 14.4161 25.64 14.895 24.9472C14.9878 24.8131 15.0706 24.6923 15.1457 24.5826C15.8178 23.6021 15.8178 23.6021 16.8519 22.9262C18.8492 21.6208 18.9964 20.9721 19.6164 18.2419L19.6444 18.1188C20.0564 18.3375 20.3376 18.6939 20.498 19.1974C20.9698 20.6789 20.2258 22.9598 19.6438 23.6318C19.581 23.7043 19.5404 23.7932 19.5268 23.8881C19.5132 23.983 19.5271 24.0798 19.567 24.1669C19.6068 24.2541 19.6708 24.328 19.7515 24.3798C19.8321 24.4316 19.9259 24.4592 20.0218 24.4592H25.738C26.2951 24.4592 26.7482 24.9124 26.7482 25.4694C26.7482 26.0265 26.2951 26.4798 25.738 26.4798H21.7971C21.6645 26.4798 21.5373 26.5324 21.4435 26.6262C21.3497 26.72 21.2971 26.8472 21.2971 26.9798C21.2971 27.1124 21.3497 27.2395 21.4435 27.3333C21.5373 27.4271 21.6645 27.4798 21.7971 27.4798H26.5639C27.1209 27.4798 27.5741 27.9329 27.5741 28.49C27.5741 29.0471 27.1209 29.5003 26.5639 29.5003H21.7971C21.6645 29.5003 21.5373 29.553 21.4435 29.6468C21.3497 29.7405 21.2971 29.8677 21.2971 30.0003C21.2971 30.1329 21.3497 30.2601 21.4435 30.3539C21.5373 30.4476 21.6645 30.5003 21.7971 30.5003H26.0448C26.6018 30.5003 27.055 30.9535 27.055 31.5106C27.055 32.0676 26.6018 32.5208 26.0448 32.5208H21.7971C21.6645 32.5208 21.5373 32.5735 21.4435 32.6673C21.3497 32.761 21.2971 32.8882 21.2971 33.0208C21.2971 33.1534 21.3497 33.2806 21.4435 33.3744C21.5373 33.4681 21.6645 33.5208 21.7971 33.5208H24.4636C25.0207 33.5208 25.4739 33.9741 25.4739 34.5311C25.4739 35.0882 25.0208 35.5414 24.4636 35.5414H17.8263ZM38.1231 35.5372L26.2005 35.5413C26.3798 35.2349 26.4742 34.8862 26.4739 34.5311C26.4743 34.1739 26.379 33.823 26.1978 33.5151C27.235 33.4366 28.055 32.5675 28.055 31.5106C28.0554 31.0388 27.8892 30.582 27.5856 30.2208C28.1768 29.8704 28.5741 29.2257 28.5741 28.49C28.5741 27.6667 28.0766 26.9574 27.3664 26.6469C27.6151 26.3047 27.7487 25.8925 27.7482 25.4694C27.7482 24.361 26.8464 23.4592 25.738 23.4592H25.1449L25.1426 17.8433C25.1426 17.5803 25.2375 17.3669 25.4329 17.1909L30.2938 12.8153C30.9599 12.2158 31.4733 11.9712 32.0659 11.9709C32.6581 11.9709 33.1723 12.2153 33.8386 12.814L38.7026 17.1863C38.8981 17.3621 38.9932 17.5754 38.9934 17.8384L39 34.6596C39.0002 35.1433 38.6068 35.537 38.1231 35.5372ZM35.0696 28.7708C35.1428 29.3742 34.9811 29.9249 34.6019 30.3634C34.1559 30.879 33.4147 31.2247 32.5713 31.3217V31.9577C32.5713 32.0903 32.5186 32.2175 32.4249 32.3113C32.3311 32.405 32.2039 32.4577 32.0713 32.4577C31.9387 32.4577 31.8115 32.405 31.7178 32.3113C31.624 32.2175 31.5713 32.0903 31.5713 31.9577V31.3144C30.3223 31.1428 29.3514 30.3531 29.0704 29.2257C29.0383 29.097 29.0586 28.9609 29.1269 28.8472C29.1952 28.7335 29.3059 28.6517 29.4346 28.6196C29.5632 28.5875 29.6994 28.6078 29.8131 28.6761C29.9267 28.7444 30.0086 28.8551 30.0407 28.9838C30.2997 30.0224 31.3449 30.369 32.1618 30.3486C32.8632 30.3319 33.5241 30.081 33.8456 29.7093C34.0407 29.4837 34.1164 29.2161 34.0769 28.8913C33.9836 28.1225 33.3423 27.6813 31.9975 27.4604C29.8573 27.109 29.3589 26.0236 29.3178 25.1749C29.2606 23.999 30.0839 23.0134 31.3663 22.7225C31.4342 22.7072 31.5026 22.694 31.5714 22.6832V22.0329C31.5714 21.9003 31.6241 21.7731 31.7179 21.6793C31.8117 21.5856 31.9388 21.5329 32.0714 21.5329C32.204 21.5329 32.3312 21.5856 32.425 21.6793C32.5188 21.7731 32.5714 21.9003 32.5714 22.0329V22.6789C33.4869 22.8145 34.3899 23.3448 34.8411 24.4195C34.8925 24.5418 34.8931 24.6794 34.843 24.8022C34.7928 24.9249 34.6959 25.0227 34.5737 25.0741C34.5131 25.0995 34.4482 25.1128 34.3825 25.1131C34.3169 25.1134 34.2518 25.1008 34.191 25.076C34.1302 25.0511 34.0749 25.0146 34.0283 24.9683C33.9816 24.9221 33.9445 24.8672 33.9191 24.8066C33.4854 23.7738 32.4356 23.5055 31.5875 23.6979C30.9466 23.8432 30.2762 24.2949 30.3166 25.1266C30.3293 25.387 30.3677 26.1796 32.1596 26.4738C32.8234 26.5826 34.8442 26.9144 35.0696 28.7708ZM32.0672 17.6755C33.049 17.6755 33.8478 16.8768 33.8478 15.8949C33.8478 14.913 33.0491 14.1143 32.0672 14.1143C31.0853 14.1143 30.2865 14.913 30.2865 15.8949C30.2865 16.8768 31.0853 17.6755 32.0672 17.6755ZM32.0672 15.1142C32.4976 15.1142 32.8478 15.4644 32.8478 15.8948C32.8478 16.3252 32.4976 16.6754 32.0672 16.6754C31.6368 16.6754 31.2865 16.3252 31.2865 15.8948C31.2865 15.4644 31.6368 15.1142 32.0672 15.1142Z" fill="#0E2D43"/>
</svg>
