<svg width="48" height="48" viewBox="0 0 48 48" fill="none" xmlns="http://www.w3.org/2000/svg">
<rect width="48" height="48" rx="4" fill="#C0E3F7"/>
<path fill-rule="evenodd" clip-rule="evenodd" d="M13.0688 12.8571H14.5829C14.6751 12.8566 14.7633 12.8198 14.8284 12.7546C14.8936 12.6895 14.9304 12.6013 14.9309 12.5091V10.6008L13.0688 12.8571ZM15.8404 9.90956H32.5581C32.6502 9.91017 32.7384 9.94704 32.8035 10.0122C32.8686 10.0773 32.9055 10.1655 32.9061 10.2576V35.541C32.9055 35.6331 32.8687 35.7213 32.8035 35.7865C32.7384 35.8516 32.6502 35.8884 32.5581 35.8889H12.9085C12.8164 35.8884 12.7282 35.8516 12.663 35.7865C12.5979 35.7213 12.561 35.6331 12.5605 35.541V13.7666H14.5828C14.9161 13.766 15.2356 13.6333 15.4712 13.3976C15.7069 13.1619 15.8396 12.8424 15.8403 12.5091V9.90956H15.8404ZM15.017 29.2149H19.4848C19.6054 29.2149 19.721 29.167 19.8063 29.0817C19.8916 28.9965 19.9395 28.8808 19.9395 28.7602C19.9395 28.6396 19.8916 28.5239 19.8063 28.4386C19.721 28.3533 19.6054 28.3054 19.4848 28.3054H15.017C14.8964 28.3054 14.7807 28.3533 14.6954 28.4386C14.6102 28.5239 14.5623 28.6396 14.5623 28.7602C14.5623 28.8808 14.6102 28.9965 14.6954 29.0817C14.7807 29.167 14.8964 29.2149 15.017 29.2149ZM15.017 32.999H20.1134C20.234 32.999 20.3497 32.9511 20.435 32.8658C20.5203 32.7805 20.5682 32.6649 20.5682 32.5443C20.5682 32.4236 20.5203 32.308 20.435 32.2227C20.3497 32.1374 20.234 32.0895 20.1134 32.0895H15.017C14.8964 32.0895 14.7807 32.1374 14.6954 32.2227C14.6102 32.308 14.5623 32.4236 14.5623 32.5443C14.5623 32.6649 14.6102 32.7805 14.6954 32.8658C14.7807 32.9511 14.8964 32.999 15.017 32.999ZM15.017 21.6469H30.4496C30.5693 21.6455 30.6836 21.5969 30.7677 21.5118C30.8519 21.4267 30.899 21.3118 30.899 21.1921C30.899 21.0724 30.8519 20.9575 30.7677 20.8724C30.6836 20.7872 30.5693 20.7387 30.4496 20.7373H15.017C14.8973 20.7387 14.783 20.7872 14.6989 20.8724C14.6147 20.9575 14.5675 21.0724 14.5675 21.1921C14.5675 21.3118 14.6147 21.4267 14.6989 21.5118C14.783 21.5969 14.8973 21.6455 15.017 21.6469ZM15.017 25.4309H20.0875C20.1477 25.4316 20.2074 25.4204 20.2632 25.3979C20.319 25.3753 20.3697 25.3419 20.4125 25.2996C20.4553 25.2573 20.4893 25.207 20.5125 25.1514C20.5357 25.0959 20.5476 25.0363 20.5476 24.9762C20.5476 24.916 20.5357 24.8564 20.5125 24.8009C20.4893 24.7453 20.4553 24.695 20.4125 24.6527C20.3697 24.6104 20.319 24.577 20.2632 24.5545C20.2074 24.5319 20.1477 24.5207 20.0875 24.5214H15.017C14.8973 24.5228 14.783 24.5713 14.6989 24.6564C14.6147 24.7416 14.5675 24.8565 14.5675 24.9762C14.5675 25.0959 14.6147 25.2107 14.6989 25.2959C14.783 25.381 14.8973 25.4295 15.017 25.4309ZM22.9803 14.0788H30.4496C30.5693 14.0774 30.6836 14.0289 30.7677 13.9437C30.8519 13.8586 30.899 13.7437 30.899 13.624C30.899 13.5043 30.8519 13.3895 30.7677 13.3043C30.6836 13.2192 30.5693 13.1707 30.4496 13.1693H22.9803C22.9201 13.1685 22.8604 13.1798 22.8046 13.2023C22.7488 13.2249 22.698 13.2583 22.6552 13.3006C22.6124 13.3429 22.5784 13.3932 22.5552 13.4488C22.532 13.5043 22.5201 13.5639 22.5201 13.624C22.5201 13.6842 22.532 13.7438 22.5552 13.7993C22.5784 13.8548 22.6124 13.9052 22.6552 13.9475C22.698 13.9898 22.7488 14.0232 22.8046 14.0457C22.8604 14.0683 22.9201 14.0795 22.9803 14.0788ZM15.4563 17.8629H30.45C30.5697 17.8615 30.684 17.8129 30.7682 17.7278C30.8523 17.6427 30.8995 17.5278 30.8995 17.4081C30.8995 17.2884 30.8523 17.1735 30.7682 17.0884C30.684 17.0032 30.5697 16.9547 30.45 16.9533H15.4563C15.3366 16.9547 15.2222 17.0032 15.1381 17.0884C15.054 17.1735 15.0068 17.2884 15.0068 17.4081C15.0068 17.5278 15.054 17.6427 15.1381 17.7278C15.2222 17.8129 15.3366 17.8615 15.4563 17.8629ZM15.0938 36.7985V37.7423C15.0943 37.8344 15.1311 37.9226 15.1963 37.9877C15.2614 38.0528 15.3496 38.0897 15.4418 38.0902H35.0915C35.1836 38.0897 35.2718 38.0528 35.337 37.9877C35.4021 37.9226 35.439 37.8344 35.4395 37.7423V12.4591C35.4389 12.367 35.4021 12.2788 35.3369 12.2137C35.2718 12.1485 35.1836 12.1117 35.0915 12.1111H33.8156V35.541C33.8149 35.8743 33.6822 36.1938 33.4465 36.4295C33.2109 36.6652 32.8914 36.7979 32.5581 36.7985H15.0938ZM33.8156 11.2015H35.0915C35.4248 11.2022 35.7443 11.3349 35.98 11.5706C36.2157 11.8063 36.3484 12.1258 36.349 12.4591V37.7425C36.3484 38.0758 36.2157 38.3953 35.98 38.631C35.7443 38.8667 35.4248 38.9994 35.0915 39H15.4419C15.1086 38.9994 14.7891 38.8667 14.5534 38.631C14.3178 38.3953 14.1851 38.0758 14.1844 37.7425V36.7987H12.9085C12.5752 36.7981 12.2557 36.6654 12.02 36.4297C11.7843 36.194 11.6516 35.8746 11.651 35.5413V13.3119C11.651 13.1929 11.6976 13.0787 11.7809 12.9938L14.9392 9.16712C14.9816 9.11537 15.0351 9.0737 15.0956 9.04511C15.1561 9.01652 15.2222 9.00173 15.2892 9.00181L32.5581 9C32.8914 9.00068 33.2109 9.1334 33.4465 9.36911C33.6822 9.60481 33.8149 9.9243 33.8156 10.2576V11.2014V11.2015ZM28.1138 25.7394C27.7026 25.3283 27.1616 25.0725 26.583 25.0156C26.0044 24.9587 25.424 25.1042 24.9406 25.4272C24.4572 25.7503 24.1008 26.231 23.9321 26.7874C23.7634 27.3437 23.7929 27.9414 24.0154 28.4785C24.238 29.0156 24.6399 29.459 25.1527 29.733C25.6655 30.007 26.2574 30.0947 26.8276 29.9812C27.3978 29.8677 27.911 29.56 28.2798 29.1105C28.6486 28.661 28.8501 28.0976 28.85 27.5162C28.8504 27.1861 28.7856 26.8592 28.6592 26.5543C28.5329 26.2494 28.3475 25.9724 28.1138 25.7394ZM26.3369 24.0938C25.5452 24.0937 24.7779 24.3683 24.1658 24.8706C23.5538 25.3729 23.1348 26.0718 22.9804 26.8484C22.8259 27.625 22.9455 28.431 23.3187 29.1293C23.692 29.8276 24.2958 30.3749 25.0273 30.6779C25.7588 30.9809 26.5727 31.0208 27.3304 30.791C28.0881 30.5612 28.7426 30.0757 29.1825 29.4174C29.6224 28.7591 29.8204 27.9686 29.7428 27.1806C29.6652 26.3927 29.3167 25.656 28.7569 25.0961C28.4394 24.7779 28.0622 24.5255 27.6469 24.3534C27.2316 24.1814 26.7864 24.0932 26.3369 24.0938ZM26.6914 23.225C26.5547 23.1369 26.4164 23.0477 26.3369 23.0477C26.2575 23.0477 26.1192 23.1369 25.9825 23.225C25.4983 23.5371 25.2994 23.5846 24.7263 23.5133C24.5734 23.4945 24.4213 23.4753 24.3706 23.5001C24.3189 23.5255 24.2429 23.6553 24.1673 23.7845C23.8742 24.285 23.7173 24.4102 23.1644 24.5868C23.0248 24.6314 22.8849 24.6761 22.8489 24.7209C22.813 24.7657 22.7999 24.9118 22.7864 25.0589C22.7334 25.6318 22.6433 25.8188 22.2256 26.2144C22.1138 26.3203 22.0011 26.4269 21.9863 26.4902C21.971 26.5556 22.0234 26.7041 22.0764 26.8543C22.2737 27.4128 22.2737 27.6189 22.0764 28.1774C22.0234 28.3274 21.971 28.4761 21.9863 28.5414C22.0011 28.6047 22.1138 28.7114 22.2256 28.8173C22.6433 29.2129 22.7334 29.3999 22.7864 29.9728C22.8001 30.1199 22.8137 30.2666 22.8489 30.3107C22.8842 30.3549 23.0248 30.4002 23.1644 30.4449C23.381 30.5141 23.5839 30.5811 23.7644 30.7262C23.9486 30.8739 24.0577 31.0603 24.1671 31.2472C24.2428 31.3764 24.3188 31.5062 24.3705 31.5316C24.4213 31.5566 24.5732 31.5378 24.7262 31.5184C25.2991 31.4471 25.498 31.4946 25.9824 31.8067C26.1191 31.8948 26.2574 31.9841 26.3369 31.9841C26.4163 31.9841 26.5546 31.8948 26.6913 31.8067C27.1755 31.4946 27.3744 31.4471 27.9476 31.5184C28.1004 31.5375 28.2525 31.5564 28.3033 31.5316C28.354 31.5067 28.4309 31.3764 28.5066 31.2472C28.6161 31.0603 28.7254 30.8739 28.9093 30.7262C29.09 30.5811 29.2928 30.5142 29.5093 30.4449C29.6491 30.4002 29.7889 30.3556 29.8249 30.3107C29.8608 30.2659 29.8739 30.1199 29.8874 29.9728C29.9404 29.3999 30.0305 29.2129 30.4483 28.8172C30.5601 28.7114 30.6727 28.6047 30.6875 28.5414C30.7029 28.4761 30.6504 28.3276 30.5974 28.1774C30.4001 27.6189 30.4001 27.4127 30.5974 26.8542C30.6504 26.7043 30.7029 26.5556 30.6875 26.4902C30.6727 26.427 30.5601 26.3203 30.4483 26.2144C30.0305 25.8188 29.9405 25.6318 29.8874 25.0589C29.8738 24.9118 29.8601 24.7651 29.8249 24.7209C29.7896 24.6768 29.6491 24.6314 29.5094 24.5868C28.9568 24.4102 28.7996 24.285 28.5066 23.7845C28.4309 23.6553 28.3549 23.5255 28.3032 23.5001C28.2525 23.4751 28.1004 23.4943 27.9475 23.5133C27.3746 23.5846 27.1757 23.5371 26.6913 23.225H26.6914ZM24.701 32.4375C24.4627 32.4633 24.2235 32.4688 23.9729 32.3456C23.6748 32.1994 23.53 31.9523 23.3858 31.7059L23.3778 31.6923L22.5259 33.1861L23.125 33.06C23.2339 33.0369 23.3474 33.0547 23.4441 33.1099C23.5407 33.1652 23.6136 33.254 23.6489 33.3596L23.8448 33.9391L24.701 32.4375ZM29.2961 31.6923L29.2881 31.7059C29.1439 31.9523 28.9992 32.1994 28.701 32.3456C28.4504 32.4685 28.2112 32.4633 27.9729 32.4375L28.8291 33.9393L29.0249 33.3597C29.0602 33.2542 29.1332 33.1653 29.2298 33.1101C29.3264 33.0548 29.4399 33.0371 29.5488 33.0601L30.1479 33.1863L29.2961 31.6926V31.6923ZM26.3369 22.1385C25.9932 22.1385 25.7413 22.301 25.4923 22.4615C25.1929 22.6544 25.1904 22.6552 24.8366 22.6115C24.553 22.5762 24.2711 22.5411 23.9729 22.6873C23.6747 22.8334 23.53 23.0806 23.3858 23.3269C23.2139 23.6206 23.2151 23.6206 22.8911 23.7241C22.6191 23.811 22.3468 23.898 22.1421 24.1532C21.9373 24.4084 21.9104 24.6931 21.8841 24.9778C21.8519 25.3244 21.8528 25.3189 21.6003 25.5578C21.3902 25.7568 21.1786 25.9573 21.1017 26.2849C21.0261 26.6071 21.1226 26.8806 21.2204 27.157C21.3438 27.5061 21.3438 27.5269 21.2204 27.8757C21.1228 28.1522 21.0263 28.4258 21.1017 28.7479C21.1785 29.0754 21.3902 29.2759 21.6004 29.4749C21.8526 29.7138 21.8519 29.7083 21.8841 30.0549C21.9104 30.3396 21.9368 30.6236 22.1421 30.8796C22.2658 31.0289 22.4267 31.143 22.6086 31.2103L21.2478 33.5969C21.2003 33.6724 21.1761 33.7602 21.1782 33.8494C21.1802 33.9386 21.2085 34.0252 21.2594 34.0984C21.3103 34.1716 21.3817 34.2283 21.4646 34.2612C21.5475 34.2942 21.6382 34.302 21.7256 34.2838L22.9188 34.0312L23.3063 35.1779C23.3331 35.2619 23.3837 35.3362 23.4521 35.3919C23.5204 35.4475 23.6035 35.4821 23.6912 35.4913C23.7788 35.5005 23.8673 35.4841 23.9457 35.4439C24.0242 35.4037 24.0892 35.3415 24.1329 35.265L25.6219 32.6534C25.8311 32.7827 26.0528 32.894 26.337 32.894C26.6213 32.894 26.8433 32.7827 27.0521 32.6534L28.5411 35.265C28.5848 35.3415 28.6498 35.4037 28.7283 35.4439C28.8067 35.4841 28.8952 35.5005 28.9828 35.4913C29.0705 35.4821 29.1536 35.4475 29.2219 35.3919C29.2903 35.3362 29.3409 35.2619 29.3678 35.1779L29.7553 34.0312L30.9486 34.2839C31.0359 34.3021 31.1266 34.2943 31.2095 34.2613C31.2924 34.2284 31.3638 34.1718 31.4147 34.0985C31.4657 34.0253 31.4939 33.9387 31.496 33.8495C31.498 33.7603 31.4738 33.6725 31.4263 33.597L30.0655 31.2104C30.2474 31.1431 30.4083 31.0291 30.532 30.8797C30.7373 30.6239 30.7636 30.3398 30.79 30.055C30.8221 29.7084 30.8213 29.714 31.0738 29.4751C31.2839 29.276 31.4956 29.0756 31.5724 28.748C31.648 28.4257 31.5514 28.1523 31.4536 27.8759C31.3303 27.5267 31.3303 27.5059 31.4536 27.1567C31.5513 26.8804 31.6478 26.6068 31.5724 26.2847C31.4955 25.9571 31.2839 25.7566 31.0738 25.5576C30.8215 25.3187 30.8221 25.3243 30.79 24.9776C30.7636 24.6929 30.7373 24.4089 30.532 24.153C30.3268 23.8971 30.055 23.8108 29.783 23.7239C29.4589 23.6204 29.4602 23.6203 29.2883 23.3267C29.1441 23.0804 28.9993 22.8333 28.7012 22.6871C28.4031 22.5408 28.1211 22.576 27.8374 22.6113C27.4837 22.6554 27.4812 22.6545 27.1819 22.4613C26.9328 22.3008 26.6808 22.1383 26.3371 22.1383L26.3369 22.1385ZM24.9989 27.9174L25.862 28.5961C25.9567 28.6705 26.077 28.7042 26.1966 28.6899C26.3161 28.6756 26.4251 28.6144 26.4995 28.5198L26.5024 28.516L27.7369 27.09C27.8151 26.999 27.8541 26.8807 27.8452 26.7611C27.8364 26.6414 27.7805 26.5301 27.6897 26.4516C27.599 26.3731 27.4808 26.3337 27.3611 26.3422C27.2415 26.3506 27.13 26.4062 27.0512 26.4967L26.0833 27.6147L25.56 27.2033C25.5132 27.1657 25.4594 27.1377 25.4017 27.121C25.344 27.1043 25.2835 27.0992 25.2239 27.1061C25.1642 27.1129 25.1065 27.1315 25.054 27.1607C25.0016 27.19 24.9555 27.2294 24.9184 27.2766C24.8812 27.3239 24.8539 27.378 24.8378 27.4358C24.8217 27.4937 24.8173 27.5542 24.8248 27.6138C24.8322 27.6734 24.8515 27.7309 24.8813 27.783C24.9112 27.8352 24.9511 27.8808 24.9987 27.9174H24.9989Z" fill="#0E2D43"/>
</svg>
