<svg width="48" height="48" viewBox="0 0 48 48" fill="none" xmlns="http://www.w3.org/2000/svg">
<rect width="48" height="48" rx="4" fill="#C0E3F7"/>
<path d="M39.7599 29.363C39.5391 28.7113 39.0119 28.238 38.2753 28.0303C37.4827 27.8067 36.4518 27.8779 35.2113 28.2419L29.5642 29.8986C29.5403 29.8501 29.5149 29.8024 29.4878 29.7555C29.1725 29.2093 28.6652 28.8191 28.0595 28.6568L24.0476 27.5818C21.1199 25.5304 19.5509 26.1196 17.2436 27.2478C16.14 27.7874 15.0433 28.3094 14.0064 28.7994L13.789 28.2773C13.5005 27.5846 12.702 27.2551 12.0087 27.5427L9.84164 28.4427C9.50376 28.5829 9.24145 28.845 9.10301 29.1806C8.96451 29.5162 8.9657 29.887 9.10639 30.2247L12.7761 39.0366C12.9938 39.5592 13.5017 39.8752 14.0358 39.8751C14.2095 39.8751 14.3861 39.8417 14.5563 39.771L16.7234 38.8711C17.0612 38.7308 17.3235 38.4688 17.462 38.1331C17.6004 37.7976 17.5992 37.4268 17.4586 37.0891L17.2128 36.4988L18.6252 35.812C19.1411 35.5612 19.6596 35.517 20.2106 35.677L24.7183 36.9858C25.0502 37.0822 25.3931 37.1234 25.7411 37.1234C26.9392 37.1233 28.1955 36.6345 29.2515 36.2235C29.3446 36.1873 37.985 32.8574 37.985 32.8574C39.3546 32.3296 40.2006 30.6641 39.7599 29.363ZM16.6531 37.7994C16.6039 37.9188 16.5097 38.0124 16.3878 38.063L14.2207 38.9629C13.9726 39.0657 13.687 38.948 13.5838 38.7001L9.91414 29.8883C9.86339 29.7665 9.86264 29.6337 9.91189 29.5143C9.96114 29.395 10.0553 29.3014 10.1772 29.2508L12.3443 28.3509C12.4033 28.3263 12.4665 28.3137 12.5305 28.3136C12.7215 28.3136 12.9033 28.4267 12.9812 28.6137L16.6509 37.4255C16.7016 37.5473 16.7024 37.6801 16.6531 37.7994ZM37.6704 32.0408C37.6704 32.0408 29.0282 35.3715 28.9343 35.4081C27.6946 35.8906 26.1519 36.4909 24.9623 36.1455L20.4547 34.8367C19.6967 34.6166 18.9525 34.68 18.2426 35.0252L16.8758 35.6898L14.3431 29.6081C15.3938 29.1116 16.5066 28.5821 17.6278 28.0338C19.7843 26.9794 21.0296 26.5141 23.606 28.3411C23.6483 28.3711 23.6956 28.3934 23.7458 28.4069L27.833 29.502C28.213 29.6038 28.5315 29.8492 28.73 30.193C28.9285 30.5368 28.9818 30.9354 28.8799 31.3154C28.7781 31.6953 28.5327 32.0139 28.1888 32.2124C27.845 32.4109 27.4464 32.4642 27.0665 32.3623L21.6348 30.9069C21.4016 30.8447 21.1616 30.9829 21.099 31.2163C21.069 31.3284 21.0847 31.4478 21.1427 31.5483C21.2008 31.6488 21.2963 31.7221 21.4084 31.7521L26.84 33.2075C27.4457 33.3697 28.0801 33.2855 28.6264 32.9701C29.1726 32.6548 29.5628 32.1475 29.7251 31.5417C29.7953 31.2813 29.82 31.0107 29.798 30.7418L35.4576 29.0815C37.3276 28.533 38.6261 28.7431 38.9311 29.6437C39.2201 30.4969 38.5956 31.6843 37.6704 32.0408ZM34.72 14.2358C36.1636 14.2358 37.3381 13.0613 37.3381 11.6177C37.3381 10.1743 36.1636 9 34.72 9C33.2764 9 32.102 10.1743 32.102 11.6177C32.102 13.0613 33.2764 14.2358 34.72 14.2358ZM34.72 9.875C35.6811 9.875 36.4631 10.6568 36.4631 11.6177C36.4631 12.5789 35.6812 13.3608 34.72 13.3608C33.7589 13.3608 32.977 12.5789 32.977 11.6177C32.977 10.6568 33.7589 9.875 34.72 9.875ZM18.3298 20.9795C19.2621 21.8237 21.1648 22.1629 22.9115 22.1629C23.2302 22.1629 23.5436 22.1514 23.8452 22.1298C24.068 22.5343 24.5275 22.9538 25.4182 23.2817C26.3211 23.6141 27.5267 23.7972 28.813 23.7972C30.9681 23.7972 33.1393 23.2754 33.7796 22.1297C34.0815 22.1513 34.3952 22.1629 34.7145 22.1629C36.461 22.1629 38.3639 21.8236 39.2961 20.9795C39.675 20.6365 39.8753 20.2191 39.8753 19.7726C39.8753 16.93 37.5626 14.6174 34.72 14.6174C33.1277 14.6174 31.6361 15.3503 30.6613 16.5942C30.0717 16.3666 29.4452 16.2501 28.8132 16.2503C28.1811 16.2501 27.5545 16.3667 26.9648 16.5942C25.9901 15.3504 24.4985 14.6174 22.9063 14.6174C20.0635 14.6174 17.7507 16.93 17.7507 19.7726C17.7506 20.2191 17.951 20.6365 18.3298 20.9795ZM34.72 15.4924C37.0801 15.4924 39.0003 17.4125 39.0003 19.7726C39.0003 19.9707 38.905 20.1533 38.7088 20.3309C37.9591 21.0096 35.971 21.3919 33.9648 21.2656C33.9161 19.4523 32.9279 17.8694 31.4689 16.9889C31.8706 16.5195 32.3692 16.1426 32.9304 15.8843C33.4917 15.626 34.1022 15.4922 34.72 15.4924ZM33.0934 21.4055C33.0934 22.2559 31.2132 22.9222 28.813 22.9222C26.4127 22.9222 24.5325 22.256 24.5325 21.4055C24.5325 19.0454 26.4528 17.1253 28.8131 17.1253C31.1733 17.1253 33.0934 19.0454 33.0934 21.4055ZM22.9062 15.4924C23.524 15.4923 24.1345 15.626 24.6957 15.8843C25.2569 16.1426 25.7555 16.5194 26.1572 16.9888C24.6981 17.8694 23.7098 19.4522 23.6611 21.2656C21.6548 21.3919 19.6668 21.0096 18.9171 20.3308C18.721 20.1532 18.6256 19.9706 18.6256 19.7726C18.6256 17.4125 20.546 15.4924 22.9062 15.4924ZM22.9062 14.2358C24.3498 14.2358 25.5243 13.0613 25.5243 11.6177C25.5243 10.1743 24.3498 9 22.9062 9C21.4626 9 20.2881 10.1743 20.2881 11.6177C20.2881 13.0613 21.4626 14.2358 22.9062 14.2358ZM22.9062 9.875C23.8673 9.875 24.6493 10.6568 24.6493 11.6177C24.6493 12.5789 23.8674 13.3608 22.9062 13.3608C21.9451 13.3608 21.1631 12.5789 21.1631 11.6177C21.1631 10.6568 21.9451 9.875 22.9062 9.875ZM28.8131 15.8686C30.2568 15.8686 31.4312 14.6942 31.4312 13.2506C31.4312 11.8071 30.2568 10.6328 28.8131 10.6328C27.3695 10.6328 26.1951 11.8071 26.1951 13.2506C26.1951 14.6942 27.3695 15.8686 28.8131 15.8686ZM28.8131 11.5079C29.7743 11.5079 30.5562 12.2897 30.5562 13.2506C30.5562 14.2118 29.7743 14.9937 28.8131 14.9937C27.852 14.9937 27.0701 14.2118 27.0701 13.2506C27.0701 12.2897 27.852 11.5079 28.8131 11.5079Z" fill="#0E2D43"/>
</svg>
