<svg width="48" height="48" viewBox="0 0 48 48" fill="none" xmlns="http://www.w3.org/2000/svg">
<rect width="48" height="48" rx="4" fill="#C0E3F7"/>
<path d="M24.8548 34.8693C23.9602 35.0807 23.0441 35.1874 22.125 35.1874C15.5666 35.1874 10.25 29.8708 10.25 23.3124C10.25 16.7541 15.5666 11.4375 22.125 11.4375C28.6833 11.4375 33.9999 16.7541 33.9999 23.3124C33.9999 24.8537 33.6998 26.3804 33.1165 27.807M11.2974 14.2527L13.0652 12.4849M12.4023 13.5897L13.5071 14.6946M31.1847 12.4849L32.9525 14.2527M31.8476 13.5897L30.7428 14.6946M19.3125 11.4375V8.625H24.9374V11.4375M22.1245 13.9375H22.125M17.4371 15.1937L17.4375 15.1935M14.0058 18.6253L14.006 18.625M12.75 23.3129V23.3124M14.0062 28.0003L14.006 27.9999M17.4379 31.4316L17.4375 31.4313M22.1254 32.6873H22.125M31.4999 23.3119V23.3124M30.2437 18.6246L30.2439 18.625M26.812 15.1933L26.8124 15.1935M22.125 21.7273V16.75" stroke="#0E2D43" stroke-width="1.25" stroke-miterlimit="22.9256" stroke-linecap="round" stroke-linejoin="round"/>
<path fill-rule="evenodd" clip-rule="evenodd" d="M32.9881 27.9814C33.6157 28.1962 34.1953 28.5313 34.6945 28.9681L36.2916 28.2684L37.7499 30.7942L36.3462 31.8268C36.4097 32.1516 36.4417 32.4817 36.4416 32.8125C36.4416 33.1498 36.4086 33.4793 36.3462 33.7982L37.7499 34.8308L36.2916 37.3567L34.6945 36.657C34.1953 37.0938 33.6157 37.4289 32.9881 37.6437L32.7957 39.3751H29.8791L29.6867 37.6438C29.0591 37.429 28.4795 37.0939 27.9802 36.6571L26.3832 37.3568L24.9249 34.8309L26.3287 33.7982C26.2652 33.4735 26.2332 33.1434 26.2332 32.8126C26.2332 32.4753 26.2662 32.1458 26.3286 31.8269L24.9249 30.7943L26.3832 28.2685L27.9802 28.9682C28.4794 28.5314 29.059 28.1963 29.6866 27.9815L29.879 26.2501H32.7956L32.9881 27.9814Z" stroke="#0E2D43" stroke-width="1.25" stroke-miterlimit="22.9256" stroke-linecap="round" stroke-linejoin="round"/>
<path fill-rule="evenodd" clip-rule="evenodd" d="M31.3375 34.6354C32.3416 34.6354 33.1605 33.8166 33.1605 32.8125C33.1605 31.8085 32.3416 30.9896 31.3375 30.9896C30.3335 30.9896 29.5147 31.8085 29.5147 32.8125C29.5146 33.8166 30.3335 34.6354 31.3375 34.6354ZM22.125 24.7187C22.8996 24.7187 23.5312 24.0871 23.5312 23.3125C23.5312 22.5379 22.8996 21.9062 22.125 21.9062C21.3504 21.9062 20.7188 22.5379 20.7188 23.3125C20.7188 24.0871 21.3505 24.7187 22.125 24.7187Z" stroke="#0E2D43" stroke-width="1.25" stroke-miterlimit="22.9256" stroke-linecap="round" stroke-linejoin="round"/>
</svg>
