<svg width="32" height="32" viewBox="0 0 32 32" fill="none" xmlns="http://www.w3.org/2000/svg">
<rect width="32" height="32" rx="16" fill="white"/>
<path d="M15.9992 12.1475C14.9772 12.1475 13.9971 12.5534 13.2745 13.2761C12.5518 13.9987 12.1459 14.9788 12.1459 16.0008C12.1459 17.0228 12.5518 18.0029 13.2745 18.7255C13.9971 19.4482 14.9772 19.8541 15.9992 19.8541C17.0212 19.8541 18.0013 19.4482 18.7239 18.7255C19.4466 18.0029 19.8525 17.0228 19.8525 16.0008C19.8525 14.9788 19.4466 13.9987 18.7239 13.2761C18.0013 12.5534 17.0212 12.1475 15.9992 12.1475ZM15.9992 18.5033C15.6705 18.5033 15.3449 18.4385 15.0412 18.3127C14.7375 18.1869 14.4615 18.0025 14.2291 17.7701C13.9966 17.5376 13.8122 17.2617 13.6864 16.9579C13.5606 16.6542 13.4959 16.3287 13.4959 16C13.4959 15.6712 13.5606 15.3457 13.6864 15.042C13.8122 14.7383 13.9966 14.4623 14.2291 14.2298C14.4615 13.9974 14.7375 13.813 15.0412 13.6872C15.3449 13.5614 15.6705 13.4966 15.9992 13.4966C16.6631 13.4966 17.2999 13.7604 17.7693 14.2298C18.2388 14.6993 18.5025 15.336 18.5025 16C18.5025 16.6639 18.2388 17.3006 17.7693 17.7701C17.2999 18.2396 16.6631 18.5033 15.9992 18.5033Z" fill="#12679B"/>
<path d="M20.005 12.9041C20.5012 12.9041 20.9034 12.5019 20.9034 12.0058C20.9034 11.5096 20.5012 11.1074 20.005 11.1074C19.5089 11.1074 19.1067 11.5096 19.1067 12.0058C19.1067 12.5019 19.5089 12.9041 20.005 12.9041Z" fill="#12679B"/>
<path d="M23.1109 11.0922C22.918 10.5941 22.6232 10.1416 22.2453 9.76396C21.8675 9.38627 21.415 9.09163 20.9167 8.89891C20.3337 8.68004 19.7177 8.56169 19.095 8.54891C18.2925 8.51391 18.0384 8.50391 16.0034 8.50391C13.9684 8.50391 13.7075 8.50391 12.9117 8.54891C12.2895 8.56104 11.674 8.67941 11.0917 8.89891C10.5933 9.09141 10.1407 9.38596 9.76282 9.76368C9.38496 10.1414 9.09023 10.5939 8.89754 11.0922C8.67863 11.6752 8.56055 12.2913 8.54838 12.9139C8.51254 13.7156 8.50171 13.9697 8.50171 16.0056C8.50171 18.0406 8.50171 18.2997 8.54838 19.0972C8.56088 19.7206 8.67838 20.3356 8.89754 20.9197C9.09077 21.4179 9.38579 21.8702 9.76374 22.2479C10.1417 22.6255 10.5943 22.9202 11.0925 23.1131C11.6737 23.3407 12.2895 23.4676 12.9134 23.4881C13.7159 23.5231 13.97 23.5339 16.005 23.5339C18.04 23.5339 18.3009 23.5339 19.0967 23.4881C19.7193 23.4754 20.3352 23.3574 20.9184 23.1389C21.4165 22.9457 21.8689 22.6508 22.2467 22.273C22.6245 21.8953 22.9194 21.4429 23.1125 20.9447C23.3317 20.3614 23.4492 19.7464 23.4617 19.1231C23.4975 18.3214 23.5084 18.0672 23.5084 16.0314C23.5084 13.9956 23.5084 13.7372 23.4617 12.9397C23.452 12.3083 23.3333 11.6833 23.1109 11.0922ZM22.0959 19.0356C22.0905 19.5158 22.0028 19.9916 21.8367 20.4422C21.7116 20.7663 21.52 21.0606 21.2743 21.3061C21.0286 21.5517 20.7342 21.7431 20.41 21.8681C19.9644 22.0334 19.4937 22.1211 19.0184 22.1272C18.2267 22.1639 18.0034 22.1731 15.9734 22.1731C13.9417 22.1731 13.7342 22.1731 12.9275 22.1272C12.4525 22.1214 11.982 22.0338 11.5367 21.8681C11.2114 21.7439 10.9159 21.5528 10.6691 21.3072C10.4224 21.0616 10.2299 20.7669 10.1042 20.4422C9.94041 19.9964 9.8528 19.5263 9.84504 19.0514C9.80921 18.2597 9.80088 18.0364 9.80088 16.0064C9.80088 13.9756 9.80088 13.7681 9.84504 12.9606C9.85043 12.4806 9.93809 12.0051 10.1042 11.5547C10.3584 10.8972 10.8792 10.3797 11.5367 10.1281C11.9822 9.96319 12.4526 9.87554 12.9275 9.86891C13.72 9.83307 13.9425 9.82307 15.9734 9.82307C18.0042 9.82307 18.2125 9.82307 19.0184 9.86891C19.4937 9.87462 19.9645 9.9623 20.41 10.1281C20.7341 10.2533 21.0285 10.4449 21.2742 10.6906C21.5199 10.9363 21.7115 11.2306 21.8367 11.5547C22.0005 12.0005 22.0881 12.4707 22.0959 12.9456C22.1317 13.7381 22.1409 13.9606 22.1409 15.9914C22.1409 18.0214 22.1409 18.2397 22.105 19.0364L22.0959 19.0356Z" fill="#12679B"/>
</svg>
