<svg width="24" height="25" viewBox="0 0 24 25" fill="none" xmlns="http://www.w3.org/2000/svg">
<path d="M17.657 17.1572L13.414 21.4002C13.2284 21.5859 13.0081 21.7333 12.7656 21.8338C12.523 21.9344 12.2631 21.9861 12.0005 21.9861C11.738 21.9861 11.478 21.9344 11.2354 21.8338C10.9929 21.7333 10.7726 21.5859 10.587 21.4002L6.343 17.1572C5.22422 16.0384 4.46234 14.6129 4.15369 13.0611C3.84504 11.5092 4.00349 9.90071 4.60901 8.43893C5.21452 6.97714 6.2399 5.72774 7.55548 4.8487C8.87107 3.96967 10.4178 3.50049 12 3.50049C13.5822 3.50049 15.1289 3.96967 16.4445 4.8487C17.7601 5.72774 18.7855 6.97714 19.391 8.43893C19.9965 9.90071 20.155 11.5092 19.8463 13.0611C19.5377 14.6129 18.7758 16.0384 17.657 17.1572Z" stroke="white" stroke-width="2" stroke-linecap="round" stroke-linejoin="round"/>
<path d="M15 11.5C15 12.2956 14.6839 13.0587 14.1213 13.6213C13.5587 14.1839 12.7956 14.5 12 14.5C11.2044 14.5 10.4413 14.1839 9.87868 13.6213C9.31607 13.0587 9 12.2956 9 11.5C9 10.7044 9.31607 9.94129 9.87868 9.37868C10.4413 8.81607 11.2044 8.5 12 8.5C12.7956 8.5 13.5587 8.81607 14.1213 9.37868C14.6839 9.94129 15 10.7044 15 11.5Z" stroke="white" stroke-width="2" stroke-linecap="round" stroke-linejoin="round"/>
</svg>
