<svg width="40" height="40" viewBox="0 0 40 40" fill="none" xmlns="http://www.w3.org/2000/svg">
<rect width="40" height="40" rx="4" fill="#49B2E7"/>
<path d="M25.0233 24.1582L20.7803 28.4012C20.5948 28.5869 20.3744 28.7343 20.1319 28.8348C19.8894 28.9353 19.6294 28.9871 19.3668 28.9871C19.1043 28.9871 18.8443 28.9353 18.6018 28.8348C18.3592 28.7343 18.1389 28.5869 17.9533 28.4012L13.7093 24.1582C12.5906 23.0393 11.8287 21.6139 11.52 20.062C11.2114 18.5102 11.3698 16.9017 11.9753 15.4399C12.5809 13.9781 13.6062 12.7287 14.9218 11.8497C16.2374 10.9706 17.7841 10.5015 19.3663 10.5015C20.9486 10.5015 22.4953 10.9706 23.8109 11.8497C25.1264 12.7287 26.1518 13.9781 26.7573 15.4399C27.3628 16.9017 27.5213 18.5102 27.2126 20.062C26.904 21.6139 26.1421 23.0393 25.0233 24.1582Z" stroke="white" stroke-width="2" stroke-linecap="round" stroke-linejoin="round"/>
<path d="M22.3663 18.501C22.3663 19.2966 22.0503 20.0597 21.4877 20.6223C20.925 21.1849 20.162 21.501 19.3663 21.501C18.5707 21.501 17.8076 21.1849 17.245 20.6223C16.6824 20.0597 16.3663 19.2966 16.3663 18.501C16.3663 17.7053 16.6824 16.9423 17.245 16.3797C17.8076 15.817 18.5707 15.501 19.3663 15.501C20.162 15.501 20.925 15.817 21.4877 16.3797C22.0503 16.9423 22.3663 17.7053 22.3663 18.501Z" stroke="white" stroke-width="2" stroke-linecap="round" stroke-linejoin="round"/>
</svg>
