<svg width="40" height="40" viewBox="0 0 40 40" fill="none" xmlns="http://www.w3.org/2000/svg">
<rect width="40" height="40" rx="4" fill="#49B2E7"/>
<path d="M10.4082 15.6694L18.2982 20.9294C18.6269 21.1487 19.0131 21.2657 19.4082 21.2657C19.8033 21.2657 20.1896 21.1487 20.5182 20.9294L28.4082 15.6694M12.4082 26.6694H26.4082C26.9387 26.6694 27.4474 26.4587 27.8224 26.0836C28.1975 25.7086 28.4082 25.1999 28.4082 24.6694V14.6694C28.4082 14.139 28.1975 13.6303 27.8224 13.2552C27.4474 12.8801 26.9387 12.6694 26.4082 12.6694H12.4082C11.8778 12.6694 11.3691 12.8801 10.994 13.2552C10.6189 13.6303 10.4082 14.139 10.4082 14.6694V24.6694C10.4082 25.1999 10.6189 25.7086 10.994 26.0836C11.3691 26.4587 11.8778 26.6694 12.4082 26.6694Z" stroke="white" stroke-width="2" stroke-linecap="round" stroke-linejoin="round"/>
</svg>
