<svg width="20" height="20" viewBox="0 0 20 20" fill="none" xmlns="http://www.w3.org/2000/svg">
<path d="M2.49988 6.66699L9.07488 11.0503C9.34876 11.2331 9.67063 11.3306 9.99988 11.3306C10.3291 11.3306 10.651 11.2331 10.9249 11.0503L17.4999 6.66699M4.16654 15.8337H15.8332C16.2752 15.8337 16.6992 15.6581 17.0117 15.3455C17.3243 15.0329 17.4999 14.609 17.4999 14.167V5.83366C17.4999 5.39163 17.3243 4.96771 17.0117 4.65515C16.6992 4.34259 16.2752 4.16699 15.8332 4.16699H4.16654C3.72452 4.16699 3.30059 4.34259 2.98803 4.65515C2.67547 4.96771 2.49988 5.39163 2.49988 5.83366V14.167C2.49988 14.609 2.67547 15.0329 2.98803 15.3455C3.30059 15.6581 3.72452 15.8337 4.16654 15.8337Z" stroke="white" stroke-width="2" stroke-linecap="round" stroke-linejoin="round"/>
</svg>
