<svg width="20" height="20" viewBox="0 0 20 20" fill="none" xmlns="http://www.w3.org/2000/svg">
<path d="M2.49988 4.16667C2.49988 3.72464 2.67547 3.30072 2.98803 2.98816C3.30059 2.67559 3.72452 2.5 4.16654 2.5H6.89988C7.07471 2.50013 7.24506 2.55525 7.38684 2.65754C7.52862 2.75984 7.63463 2.90413 7.68988 3.07L8.93821 6.81417C9.00146 7.00445 8.99398 7.21116 8.91714 7.39637C8.8403 7.58158 8.69925 7.73288 8.51988 7.8225L6.63904 8.76417C7.56098 10.8046 9.19526 12.4389 11.2357 13.3608L12.1774 11.48C12.267 11.3006 12.4183 11.1596 12.6035 11.0827C12.7887 11.0059 12.9954 10.9984 13.1857 11.0617L16.9299 12.31C17.0959 12.3653 17.2403 12.4714 17.3426 12.6134C17.4449 12.7553 17.4999 12.9259 17.4999 13.1008V15.8333C17.4999 16.2754 17.3243 16.6993 17.0117 17.0118C16.6992 17.3244 16.2752 17.5 15.8332 17.5H14.9999C8.09654 17.5 2.49988 11.9033 2.49988 5V4.16667Z" stroke="white" stroke-width="2" stroke-linecap="round" stroke-linejoin="round"/>
</svg>
