<svg width="40" height="40" viewBox="0 0 40 40" fill="none" xmlns="http://www.w3.org/2000/svg">
<rect width="40" height="40" rx="4" fill="#49B2E7"/>
<path d="M10.5 12.5C10.5 11.9696 10.7107 11.4609 11.0858 11.0858C11.4609 10.7107 11.9696 10.5 12.5 10.5H15.78C15.9898 10.5002 16.1942 10.5663 16.3644 10.689C16.5345 10.8118 16.6617 10.985 16.728 11.184L18.226 15.677C18.3019 15.9053 18.2929 16.1534 18.2007 16.3756C18.1085 16.5979 17.9393 16.7795 17.724 16.887L15.467 18.017C16.5733 20.4655 18.5345 22.4267 20.983 23.533L22.113 21.276C22.2205 21.0607 22.4021 20.8915 22.6244 20.7993C22.8466 20.7071 23.0947 20.6981 23.323 20.774L27.816 22.272C28.0152 22.3383 28.1885 22.4657 28.3112 22.636C28.434 22.8064 28.5001 23.011 28.5 23.221V26.5C28.5 27.0304 28.2893 27.5391 27.9142 27.9142C27.5391 28.2893 27.0304 28.5 26.5 28.5H25.5C17.216 28.5 10.5 21.784 10.5 13.5V12.5Z" stroke="white" stroke-width="2" stroke-linecap="round" stroke-linejoin="round"/>
</svg>
