<svg width="32" height="32" viewBox="0 0 32 32" fill="none" xmlns="http://www.w3.org/2000/svg">
<rect width="32" height="32" rx="16" fill="white"/>
<path d="M14.3333 18.5003L18.6583 16.0003L14.3333 13.5003V18.5003ZM23.9666 11.9753C24.075 12.367 24.15 12.892 24.2 13.5587C24.2583 14.2253 24.2833 14.8003 24.2833 15.3003L24.3333 16.0003C24.3333 17.8253 24.2 19.167 23.9666 20.0253C23.7583 20.7753 23.275 21.2587 22.525 21.467C22.1333 21.5753 21.4166 21.6503 20.3166 21.7003C19.2333 21.7587 18.2416 21.7837 17.325 21.7837L16 21.8337C12.5083 21.8337 10.3333 21.7003 9.47496 21.467C8.72496 21.2587 8.24163 20.7753 8.03329 20.0253C7.92496 19.6337 7.84996 19.1087 7.79996 18.442C7.74163 17.7753 7.71663 17.2003 7.71663 16.7003L7.66663 16.0003C7.66663 14.1753 7.79996 12.8337 8.03329 11.9753C8.24163 11.2253 8.72496 10.742 9.47496 10.5337C9.86663 10.4253 10.5833 10.3503 11.6833 10.3003C12.7666 10.242 13.7583 10.217 14.675 10.217L16 10.167C19.4916 10.167 21.6666 10.3003 22.525 10.5337C23.275 10.742 23.7583 11.2253 23.9666 11.9753Z" fill="#12679B"/>
</svg>
